/* XPM */
static const char * application_xpm[] = {
"32 32 32 1",
" 	c None",
".	c #EAEAEA",
"+	c #F1F1F1",
"@	c #CCCCCC",
"#	c #9999CC",
"$	c #C0C0C0",
"%	c #CCCCFF",
"&	c #A6CAF0",
"*	c #9999FF",
"=	c #6666CC",
"-	c #E3E3E3",
";	c #6666FF",
">	c #DDDDDD",
",	c #D7D7D7",
"'	c #666699",
")	c #A0A0A4",
"!	c #969696",
"~	c #B2B2B2",
"{	c #999999",
"]	c #868686",
"^	c #424242",
"/	c #393939",
"(	c #0C0C0C",
"_	c #040404",
":	c #292929",
"<	c #222222",
"[	c #555555",
"}	c #666666",
"|	c #5F5F5F",
"1	c #777777",
"2	c #161616",
"3	c #333333",
"                                ",
"              ..   +            ",
"            @########@          ",
"          $##%%%&*&&*=$+        ",
"         -#%%%%%%%&&**;=#+      ",
"         @*%%%&*********=@      ",
"         #*%&**********;=$      ",
"        $*%&**********;;=$      ",
"       @#&&**********;;;;#+     ",
"      >#&&****;;;;;;;;;;;=$     ",
"      +#***;;;;;;;;;;;;;;=#     ",
"       #**;;;;;;;;;;;;;;;;=.    ",
"      >#*;;;;;;;;;********=#    ",
"      @#*****************;=#    ",
"      ,#*;;;************=='#    ",
"       #=='===#***#=====''#.    ",
"       -#')!''=**#=')''''@      ",
"            ++$#*='~  .,.       ",
"              +#*'#             ",
"              .#*#+             ",
"              .#*#.             ",
"              .##',             ",
"              +#='.             ",
"               -@,              ",
"      @                 >${]]$  ",
"    @^/     $]])     $]/(_____:$",
"   ><__<[}|:____<1]|<_________<[",
"    ]]____________________(/]@  ",
"   -}__(2<:2(____]~]|[[}]~-     ",
" ~}[|{$-     $3__(:{            ",
" --            ~!~$}~           ",
"                    ),          "};
