/* XPM */
static char * building_xpm[] = {
"16 15 132 2",
"  	c None",
". 	c #AAA99F",
"+ 	c #B69485",
"@ 	c #BE9584",
"# 	c #B69889",
"$ 	c #B59B8C",
"% 	c #BA9888",
"& 	c #B0A396",
"* 	c #B7917F",
"= 	c #DD9683",
"- 	c #F6B7AB",
"; 	c #FABAAC",
"> 	c #F4A997",
", 	c #F1A490",
"' 	c #F6A893",
") 	c #DD9478",
"! 	c #AC957D",
"~ 	c #AFADA3",
"{ 	c #AEB1AC",
"] 	c #C68B6F",
"^ 	c #FCC2B2",
"/ 	c #F0BAA6",
"( 	c #EBAF96",
"_ 	c #E9A98D",
": 	c #E6A383",
"< 	c #E29D78",
"[ 	c #E29C76",
"} 	c #DF9669",
"| 	c #BB8A5B",
"1 	c #A89881",
"2 	c #E0A683",
"3 	c #E9B597",
"4 	c #E2AB87",
"5 	c #DFA77E",
"6 	c #DBA274",
"7 	c #D79D6A",
"8 	c #D29960",
"9 	c #CE9759",
"0 	c #CD9653",
"a 	c #B8883F",
"b 	c #ABADA3",
"c 	c #A9A590",
"d 	c #C6A173",
"e 	c #E3B990",
"f 	c #D8AF7E",
"g 	c #D2A970",
"h 	c #CCA363",
"i 	c #C8A15C",
"j 	c #C4A054",
"k 	c #BF9F4D",
"l 	c #BA9E47",
"m 	c #B79E41",
"n 	c #AF9D3E",
"o 	c #9FA381",
"p 	c #A59D7A",
"q 	c #CCAF6C",
"r 	c #C8B16A",
"s 	c #B9A149",
"t 	c #B09B38",
"u 	c #AC9D34",
"v 	c #AAA034",
"w 	c #A9A335",
"x 	c #A6A735",
"y 	c #A3AA36",
"z 	c #A2AE37",
"A 	c #A5B73E",
"B 	c #98AC58",
"C 	c #9AA871",
"D 	c #A3B23A",
"E 	c #A2B439",
"F 	c #9DB535",
"G 	c #9BB937",
"H 	c #99BC39",
"I 	c #97BF3A",
"J 	c #96C33C",
"K 	c #95C83E",
"L 	c #93CB3F",
"M 	c #91CE40",
"N 	c #90D443",
"O 	c #8FD747",
"P 	c #96B67F",
"Q 	c #86A55B",
"R 	c #82B82F",
"S 	c #87C139",
"T 	c #88C83C",
"U 	c #8BD040",
"V 	c #8BD643",
"W 	c #88D744",
"X 	c #84D742",
"Y 	c #81D641",
"Z 	c #80DA43",
"` 	c #80E046",
" .	c #79D942",
"..	c #61C12F",
"+.	c #7FAD68",
"@.	c #94A688",
"#.	c #52892B",
"$.	c #568A32",
"%.	c #548E30",
"&.	c #569C2E",
"*.	c #6BC33A",
"=.	c #77DA45",
"-.	c #67B740",
";.	c #56A236",
">.	c #509932",
",.	c #4E9E2F",
"'.	c #4A982E",
").	c #6D975F",
"!.	c #AEB4AD",
"~.	c #A1AB9F",
"{.	c #A4ABA4",
"].	c #9FA89D",
"^.	c #949E91",
"/.	c #6AA856",
"(.	c #65DB41",
"_.	c #5AAC43",
":.	c #849F7D",
"<.	c #A1A79F",
"[.	c #95A290",
"}.	c #9BA798",
"|.	c #8FBB84",
"1.	c #5FE23D",
"2.	c #82B275",
"3.	c #8EC380",
"4.	c #66EF40",
"5.	c #97B58F",
"6.	c #87B27B",
"7.	c #49BE29",
"8.	c #8BB180",
"9.	c #ADB7AA",
"0.	c #92AB8A",
"a.	c #B0B8AD",
"                                ",
"        . + @ # $ % &           ",
"      * = - ; > , ' ) ! ~       ",
"    { ] ^ / ( _ : < [ } |       ",
"    1 2 3 4 5 6 7 8 9 0 a b     ",
"  c d e f g h i j k l m n o     ",
"  p q r s t u v w x y z A B     ",
"  C D E F G H I J K L M N O P   ",
"  Q R S T U V W X Y Z `  ...+.  ",
"  @.#.$.%.&.*.=.-.;.>.,.'.).!.  ",
"    ~.{.].^./.(._.:.<.[.}.      ",
"            |.1.2.              ",
"            3.4.5.              ",
"            6.7.8.              ",
"            9.0.a.              "};
