/* XPM */
static const char * TBB_BUILDLIBRARY_LARGE_xpm[] = {
"32 32 514 2",
"  	c None",
". 	c #9FA89C",
"+ 	c #849F7B",
"@ 	c #769E6A",
"# 	c #74A566",
"$ 	c #779D6D",
"% 	c #839C7C",
"& 	c #8F9D8B",
"* 	c #94A090",
"= 	c #8C9B87",
"- 	c #829F79",
"; 	c #839C7B",
"> 	c #8BA084",
", 	c #A0A99E",
"' 	c #A4ACA2",
") 	c #919E8D",
"! 	c #769E6B",
"~ 	c #6DB15B",
"{ 	c #76D45D",
"] 	c #8ADC73",
"^ 	c #9DE28A",
"/ 	c #8ADC74",
"( 	c #77D65D",
"_ 	c #77D25E",
": 	c #73C45D",
"< 	c #79D75F",
"[ 	c #7CD863",
"} 	c #87DC70",
"| 	c #77D05E",
"1 	c #6CBB56",
"2 	c #8D9E88",
"3 	c #60B847",
"4 	c #69C151",
"5 	c #7BD562",
"6 	c #B2E8A3",
"7 	c #D0F1C7",
"8 	c #CBF0C1",
"9 	c #C7EEBC",
"0 	c #C3EDB7",
"a 	c #BEECB2",
"b 	c #AAE69A",
"c 	c #A8E596",
"d 	c #B3E8A4",
"e 	c #B1E8A1",
"f 	c #ADE69D",
"g 	c #85DB6E",
"h 	c #68B952",
"i 	c #889783",
"j 	c #A1AA9F",
"k 	c #ADB2AB",
"l 	c #7C9B73",
"m 	c #74D65A",
"n 	c #AEE79E",
"o 	c #C4EDB9",
"p 	c #BDECB1",
"q 	c #B8EAAA",
"r 	c #ABE69B",
"s 	c #A7E596",
"t 	c #A4E392",
"u 	c #9EE28C",
"v 	c #9AE187",
"w 	c #96E083",
"x 	c #7BD761",
"y 	c #69B953",
"z 	c #6BB756",
"A 	c #6DA75C",
"B 	c #9DA79A",
"C 	c #5E994E",
"D 	c #89DC73",
"E 	c #BFECB3",
"F 	c #B9EAAB",
"G 	c #B2E8A4",
"H 	c #A6E495",
"I 	c #A2E390",
"J 	c #99E085",
"K 	c #95DF80",
"L 	c #90DE7B",
"M 	c #8CDC76",
"N 	c #87DB70",
"O 	c #84DA6C",
"P 	c #82DA6A",
"Q 	c #85DB6D",
"R 	c #7FD966",
"S 	c #80D966",
"T 	c #72D656",
"U 	c #5FA64B",
"V 	c #AAB0A8",
"W 	c #9EA89B",
"X 	c #4DA436",
"Y 	c #8EDD78",
"Z 	c #B1E8A2",
"` 	c #A5E494",
" .	c #A0E38E",
"..	c #9CE289",
"+.	c #97E083",
"@.	c #93DF7F",
"#.	c #8EDE79",
"$.	c #8ADD74",
"%.	c #86DB6E",
"&.	c #82DA69",
"*.	c #7ED965",
"=.	c #77D75C",
"-.	c #75D65A",
";.	c #77D75D",
">.	c #79D85F",
",.	c #67D349",
"'.	c #49BA2A",
").	c #9AA597",
"!.	c #719666",
"~.	c #5ACD3A",
"{.	c #ADE79D",
"].	c #A0E38D",
"^.	c #9BE287",
"/.	c #97E183",
"(.	c #92DF7D",
"_.	c #8EDE78",
":.	c #8ADD73",
"<.	c #85DC6E",
"[.	c #81DB69",
"}.	c #7DD964",
"|.	c #7AD85F",
"1.	c #75D75A",
"2.	c #71D655",
"3.	c #6DD551",
"4.	c #6AD44D",
"5.	c #67D34A",
"6.	c #66D248",
"7.	c #64D346",
"8.	c #58D037",
"9.	c #3DC119",
"0.	c #58C13C",
"a.	c #9FE38D",
"b.	c #A6E594",
"c.	c #9DE38A",
"d.	c #96E182",
"e.	c #92E07C",
"f.	c #89DD72",
"g.	c #7DDA64",
"h.	c #79D95F",
"i.	c #75D85B",
"j.	c #71D755",
"k.	c #6DD651",
"l.	c #6AD54C",
"m.	c #66D448",
"n.	c #63D445",
"o.	c #60D241",
"p.	c #5CD13C",
"q.	c #5BD03B",
"r.	c #50CF2E",
"s.	c #3CC916",
"t.	c #869C80",
"u.	c #629C51",
"v.	c #78D85D",
"w.	c #A4E593",
"x.	c #9BE387",
"y.	c #93E17E",
"z.	c #8DDF77",
"A.	c #8ADE73",
"B.	c #85DD6D",
"C.	c #82DC69",
"D.	c #7EDB64",
"E.	c #7AD95F",
"F.	c #76D95B",
"G.	c #72D857",
"H.	c #6FD752",
"I.	c #6BD64E",
"J.	c #68D54A",
"K.	c #64D446",
"L.	c #61D341",
"M.	c #5ED33E",
"N.	c #5BD23A",
"O.	c #58D137",
"P.	c #57D135",
"Q.	c #52CF30",
"R.	c #48CE23",
"S.	c #77966D",
"T.	c #9CA899",
"U.	c #61A24E",
"V.	c #79D262",
"W.	c #9AE387",
"X.	c #99E385",
"Y.	c #90E07A",
"Z.	c #8ADF73",
"`.	c #86DE6E",
" +	c #7EDB65",
".+	c #7BDB60",
"++	c #76DA5B",
"@+	c #73D957",
"#+	c #6FD853",
"$+	c #6CD74E",
"%+	c #69D74C",
"&+	c #66D647",
"*+	c #62D543",
"=+	c #60D540",
"-+	c #5CD43C",
";+	c #5AD339",
">+	c #57D336",
",+	c #55D233",
"'+	c #54D232",
")+	c #56D234",
"!+	c #53D231",
"~+	c #5BA546",
"{+	c #67AA55",
"]+	c #74D958",
"^+	c #93E27E",
"/+	c #96E280",
"(+	c #8DE177",
"_+	c #88DE6F",
":+	c #83DD6A",
"<+	c #7FDD65",
"[+	c #7BDC61",
"}+	c #70D953",
"|+	c #66D747",
"1+	c #5ED43E",
"2+	c #5CD43B",
"3+	c #5BD339",
"4+	c #58D437",
"5+	c #58D336",
"6+	c #56D334",
"7+	c #55D332",
"8+	c #53D331",
"9+	c #52D22F",
"0+	c #50D22D",
"a+	c #50D22B",
"b+	c #51D22E",
"c+	c #55D533",
"d+	c #5DD63C",
"e+	c #5FD63E",
"f+	c #6DA85D",
"g+	c #809978",
"h+	c #60CA42",
"i+	c #8BE074",
"j+	c #88E070",
"k+	c #84DF6C",
"l+	c #80DE67",
"m+	c #73DB56",
"n+	c #59D438",
"o+	c #47CF22",
"p+	c #46CF21",
"q+	c #47D021",
"r+	c #47D022",
"s+	c #48D023",
"t+	c #48D123",
"u+	c #49D124",
"v+	c #4AD124",
"w+	c #4AD225",
"x+	c #4BD226",
"y+	c #4CD227",
"z+	c #4CD328",
"A+	c #4DD328",
"B+	c #4DD329",
"C+	c #4FD42A",
"D+	c #53D530",
"E+	c #5AD738",
"F+	c #61D940",
"G+	c #5FA84B",
"H+	c #A5ACA3",
"I+	c #97A293",
"J+	c #4DB72F",
"K+	c #81DB68",
"L+	c #81DE68",
"M+	c #74DC57",
"N+	c #57D535",
"O+	c #4ED429",
"P+	c #4ED42A",
"Q+	c #4FD42B",
"R+	c #50D52B",
"S+	c #50D52C",
"T+	c #51D52D",
"U+	c #51D62D",
"V+	c #52D62E",
"W+	c #53D72F",
"X+	c #54D730",
"Y+	c #57D833",
"Z+	c #5CDA3A",
"`+	c #63DB42",
" @	c #65CC4A",
".@	c #929F8E",
"+@	c #98A395",
"@@	c #51B635",
"#@	c #6CDA50",
"$@	c #56D633",
"%@	c #55D831",
"&@	c #55D832",
"*@	c #56D832",
"=@	c #56D833",
"-@	c #57D934",
";@	c #58D934",
">@	c #58D935",
",@	c #59DA36",
"'@	c #5ADA37",
")@	c #5ADB38",
"!@	c #5CDB39",
"~@	c #60DC3E",
"{@	c #66DE45",
"]@	c #6EE04F",
"^@	c #6F9E61",
"/@	c #AFB4AD",
"(@	c #879881",
"_@	c #56D834",
":@	c #5BDB38",
"<@	c #5CDC39",
"[@	c #5DDC3A",
"}@	c #5DDC3B",
"|@	c #5EDD3B",
"1@	c #5EDD3C",
"2@	c #5FDD3D",
"3@	c #60DE3D",
"4@	c #60DE3E",
"5@	c #61DE3F",
"6@	c #61DF3F",
"7@	c #65E044",
"8@	c #6BE14B",
"9@	c #71E352",
"0@	c #70D056",
"a@	c #93A18F",
"b@	c #AEB3AC",
"c@	c #64A851",
"d@	c #5DDB3A",
"e@	c #5DDB3B",
"f@	c #62DF40",
"g@	c #63DF41",
"h@	c #63E041",
"i@	c #64E042",
"j@	c #64E043",
"k@	c #65E143",
"l@	c #66E144",
"m@	c #66E145",
"n@	c #67E245",
"o@	c #67E246",
"p@	c #68E247",
"q@	c #69E348",
"r@	c #6CE44C",
"s@	c #6FE44E",
"t@	c #6FE54F",
"u@	c #74A567",
"v@	c #A8AFA6",
"w@	c #5DB046",
"x@	c #5DD53D",
"y@	c #5FDB3E",
"z@	c #62DE40",
"A@	c #68E347",
"B@	c #6AE348",
"C@	c #6AE449",
"D@	c #6BE44A",
"E@	c #6CE54B",
"F@	c #6CE54C",
"G@	c #6DE54C",
"H@	c #6EE64D",
"I@	c #6EE54E",
"J@	c #6DE24D",
"K@	c #6ADC4C",
"L@	c #68D74A",
"M@	c #66D349",
"N@	c #6AAA58",
"O@	c #AEB3AD",
"P@	c #659856",
"Q@	c #5AC53D",
"R@	c #5DCA3F",
"S@	c #60D141",
"T@	c #63D543",
"U@	c #64D745",
"V@	c #66DA47",
"W@	c #68DD48",
"X@	c #69E049",
"Y@	c #6BE24B",
"Z@	c #6DE44C",
"`@	c #6EE54D",
" #	c #6DE44D",
".#	c #6DE14C",
"+#	c #6BDE4C",
"@#	c #6BDC4C",
"##	c #6ADB4C",
"$#	c #6BDB4D",
"%#	c #6CDC4E",
"&#	c #6DDD4E",
"*#	c #6EDF50",
"=#	c #6FE250",
"-#	c #70E251",
";#	c #6EDD51",
">#	c #6AD34D",
",#	c #63C348",
"'#	c #5CB644",
")#	c #5BB443",
"!#	c #769A6D",
"~#	c #789B6E",
"{#	c #54AE3B",
"]#	c #53AD3B",
"^#	c #55B13C",
"/#	c #56B33D",
"(#	c #57B33E",
"_#	c #58B63F",
":#	c #5CBC42",
"<#	c #5FC244",
"[#	c #63C947",
"}#	c #67D04B",
"|#	c #6CDA4E",
"1#	c #70E151",
"2#	c #70E152",
"3#	c #6EDB50",
"4#	c #6AD24D",
"5#	c #66CA4B",
"6#	c #64C549",
"7#	c #62C248",
"8#	c #61BF47",
"9#	c #61C048",
"0#	c #64C24A",
"a#	c #65C54B",
"b#	c #66C54C",
"c#	c #63BF4A",
"d#	c #5CB245",
"e#	c #54A13F",
"f#	c #50963D",
"g#	c #589348",
"h#	c #548E44",
"i#	c #478F34",
"j#	c #458B32",
"k#	c #448832",
"l#	c #468B34",
"m#	c #499036",
"n#	c #4D9739",
"o#	c #52A13D",
"p#	c #5AAF43",
"q#	c #6ED452",
"r#	c #71DB55",
"s#	c #6FD653",
"t#	c #69C84E",
"u#	c #60B948",
"v#	c #5AA944",
"w#	c #539F3F",
"x#	c #4F963C",
"y#	c #4E933B",
"z#	c #50963C",
"A#	c #51993E",
"B#	c #52993E",
"C#	c #4C8E3B",
"D#	c #4E873F",
"E#	c #778F71",
"F#	c #A2ABA0",
"G#	c #899F82",
"H#	c #59864E",
"I#	c #4D7B41",
"J#	c #5D8053",
"K#	c #6B8763",
"L#	c #608056",
"M#	c #4A793C",
"N#	c #497A3B",
"O#	c #4C7D3E",
"P#	c #4E8B3C",
"Q#	c #59A844",
"R#	c #69C550",
"S#	c #73D858",
"T#	c #74D859",
"U#	c #66A754",
"V#	c #5C7B54",
"W#	c #589A46",
"X#	c #558448",
"Y#	c #618158",
"Z#	c #517B45",
"`#	c #4D7A41",
" $	c #4A7B3C",
".$	c #4A7E3C",
"+$	c #538046",
"@$	c #ABB1A9",
"#$	c #9BA698",
"$$	c #899884",
"%$	c #5B8F4C",
"&$	c #68BF52",
"*$	c #7ADE60",
"=$	c #639256",
"-$	c #66AB54",
";$	c #60A04E",
">$	c #A9AFA7",
",$	c #A1A99E",
"'$	c #9EA79B",
")$	c #84967F",
"!$	c #6FC459",
"~$	c #7BDA61",
"{$	c #7DDD63",
"]$	c #75CA5E",
"^$	c #6CBB57",
"/$	c #859B80",
"($	c #95A191",
"_$	c #79CA63",
":$	c #82E168",
"<$	c #7EDA65",
"[$	c #70B65D",
"}$	c #829B7B",
"|$	c #85E06D",
"1$	c #88E76F",
"2$	c #83DE6A",
"3$	c #72906A",
"4$	c #8EED74",
"5$	c #8FEF75",
"6$	c #7D9D73",
"7$	c #909D8C",
"8$	c #90EF77",
"9$	c #93F279",
"0$	c #96F67B",
"a$	c #7CB26C",
"b$	c #84D66D",
"c$	c #87DE6F",
"d$	c #8AE372",
"e$	c #79B767",
"f$	c #75BD61",
"g$	c #71BA5D",
"h$	c #75C060",
"i$	c #6FA260",
"j$	c #68A658",
"k$	c #5E9650",
"l$	c #63A352",
"m$	c #78A16D",
"n$	c #A2AA9F",
"o$	c #95A192",
"                                                                ",
"                  . + @ # $ % & * = - ; > ,                     ",
"            ' ) ! ~ { ] ^ / ( _ : < [ } | 1 2                   ",
"          . 3 4 5 6 7 8 9 0 a b c 6 d e f g h i j k             ",
"          l m n 9 o p q 6 n r s t u v w w v x y z A B           ",
"          C D E F G f H I ^ J K L M N O P Q ] R S T U V         ",
"        W X Y Z b `  ...+.@.#.$.%.&.*.< =.-.m ;.>.,.'.).        ",
"        !.~.{.s ].^./.(._.:.<.[.}.|.1.2.3.4.5.6.7.8.9.)         ",
"      * 0.a.b.c.d.e._.f.<.[.g.h.i.j.k.l.m.n.o.p.q.r.s.t.        ",
"    j u.v.w.x.y.z.A.B.C.D.E.F.G.H.I.J.K.L.M.N.O.P.Q.R.S.        ",
"  T.U.V.W.X.Y.Z.`.C. +.+++@+#+$+%+&+*+=+-+;+>+,+'+)+!+~+B       ",
"  {+]+^+/+(+_+:+<+[+}+|+1+2+3+4+5+6+7+8+9+0+a+0+b+c+d+e+f+      ",
"  g+h+i+j+k+l+m+n+o+p+q+r+s+t+u+v+w+x+x+y+z+A+B+C+D+E+F+G+H+    ",
"  I+J+K+L+M+N+x+x+y+z+A+B+O+P+Q+R+S+T+U+V+V+W+X+X+Y+Z+`+ @.@    ",
"  +@@@#@$@R+S+T+U+V+V+W+X+X+%@&@*@=@-@;@>@,@,@'@)@!@~@{@]@^@/@  ",
"  (@=+;@_@*@=@-@;@>@,@,@'@)@:@!@<@[@}@|@1@2@3@4@5@6@7@8@9@0@a@  ",
"b@c@}@d@e@<@[@}@|@1@2@3@4@5@6@f@g@h@i@j@k@l@m@n@o@p@q@r@s@t@u@  ",
"v@w@x@y@z@g@h@i@j@k@l@m@n@o@p@A@q@B@C@D@D@E@F@G@H@I@J@K@L@M@N@O@",
"O@P@Q@R@S@*+T@U@V@W@X@Y@Z@`@ #.#+#@###$#%#&#*#=#-#;#>#,#'#)#!#  ",
"  ~#{#]#^#/#(#_#:#<#[#}#|#1#2#3#4#5#6#7#8#9#0#a#b#c#d#e#f#g#.   ",
"  . h#i#j#k#k#l#m#n#o#p#0#q#r#s#t#u#v#w#x#y#z#A#B#f#C#D#E#F#    ",
"    G#H#I#J#K#L#M#N#O#P#Q#R#S#T#U#V#W#X#Y#Z#`# $`#.$+$)         ",
"      @$v@O@  /@' W #$$$%$&$=.*$=$-$;$) k >$,$W B '$v@          ",
"                        )$!$~${$]$^$/$                          ",
"                        ($_$:$<$[$}$                            ",
"                        * |$1$2$3$                              ",
"                        ) 4$5$4$6$                              ",
"                        7$8$9$0$a$k                             ",
"                        .@b$c$d$e$v@                            ",
"                        * f$g$h$i$V                             ",
"                        , j$k$l$m$                              ",
"                          n$o$+@V                               "};
