/* XPM */
static const char * closedfolder_xpm[] = {
"16 16 8 1",
" 	c None",
".	c #808080",
"+	c #00FF00",
"@	c #C0C0C0",
"#	c #FFFF00",
"$	c #808000",
"%	c #008080",
"&	c #008000",
"                ",
"   .+@@.+@@     ",
"   @@@@#@@+@.   ",
"  ..@@+@@+@.+@  ",
"  .@@+@.+#.+#.  ",
" ..@+@#+@+.+.$  ",
" @#.+.+.+.+#%+@ ",
" +.+$+.++#+.+#. ",
"@$.+@#+...+@+@$ ",
" +.+.+@+#+..+.+ ",
" .$.&.+@$.+.$.  ",
"      .+.       ",
"      @@@       ",
"      @+        ",
"      @.@       ",
"       .        "};
