/* XPM */
static const char * TBB_HELP_xpm[] = {
"16 15 79 1",
" 	c None",
".	c #CDD2DC",
"+	c #CED5E3",
"@	c #CDD4E0",
"#	c #C6CBD5",
"$	c #D1DAE7",
"%	c #D9ECFF",
"&	c #CDE8FF",
"*	c #C7E4FF",
"=	c #D1E9FF",
"-	c #D1E3F8",
";	c #C4CFDE",
">	c #C6E6FF",
",	c #A5D1FC",
"'	c #99B6D5",
")	c #97AAC0",
"!	c #95BADE",
"~	c #98C9FC",
"{	c #ACD8FF",
"]	c #BAD7F3",
"^	c #B8D8FA",
"/	c #AFD1F2",
"(	c #91AFCC",
"_	c #8691A0",
":	c #A3A3A9",
"<	c #98ACC4",
"[	c #89C5FC",
"}	c #87C8FF",
"|	c #80B9EA",
"1	c #96AABF",
"2	c #A0B3C7",
"3	c #8C9CAB",
"4	c #788897",
"5	c #A0A5AC",
"6	c #ADB9C9",
"7	c #8BCBFF",
"8	c #7CC4FF",
"9	c #72A5CE",
"0	c #8D9EAF",
"a	c #ABD6F7",
"b	c #7DCAFF",
"c	c #7BB3DE",
"d	c #748EA3",
"e	c #A6AAB1",
"f	c #B8CEE1",
"g	c #96D5FF",
"h	c #6CC0F9",
"i	c #6B9EC3",
"j	c #7F91A0",
"k	c #A9ACB0",
"l	c #A5B9CA",
"m	c #84D0FF",
"n	c #69BEF8",
"o	c #5C9BC5",
"p	c #7D8E9C",
"q	c #8DB4D0",
"r	c #49A1DB",
"s	c #4488B5",
"t	c #477A9B",
"u	c #ADAFB4",
"v	c #ABB6C0",
"w	c #8CA7BE",
"x	c #89A3BB",
"y	c #8CA6BD",
"z	c #9AC0D9",
"A	c #70CBFF",
"B	c #64C6FF",
"C	c #54B7F4",
"D	c #9DB0BF",
"E	c #8EBDDA",
"F	c #59C4FF",
"G	c #4DB6F4",
"H	c #3996CE",
"I	c #95A7B6",
"J	c #96B8CF",
"K	c #66A1C3",
"L	c #5E8AA5",
"M	c #507E9A",
"N	c #9BA9B4",
"                ",
"      .+@#      ",
"    $%&**=-     ",
"   ;>,')!~{]    ",
"   ^/(_:<[}|1   ",
"   2345 67890   ",
"        abcde   ",
"      fghijk    ",
"     lmnop      ",
"     qrstu      ",
"     vwxy       ",
"     zABCD      ",
"     EFGHI      ",
"     JKLMN      ",
"                "};
