/* XPM */
static const char * TBB_HELP_LARGE_xpm[] = {
"32 32 276 2",
"  	c None",
". 	c #CDD5E2",
"+ 	c #E4F0FF",
"@ 	c #E3F0FF",
"# 	c #E2EFFF",
"$ 	c #E0EFFF",
"% 	c #E0EEFF",
"& 	c #E0EDFF",
"* 	c #C9D3E2",
"= 	c #DBE6F3",
"- 	c #E1EEFF",
"; 	c #DDECFF",
"> 	c #D9EAFF",
", 	c #D4E8FF",
"' 	c #D3E8FF",
") 	c #D5E8FF",
"! 	c #D8EAFF",
"~ 	c #D9EBFF",
"{ 	c #CCDBEE",
"] 	c #DEEAF9",
"^ 	c #DFEEFF",
"/ 	c #D7E9FF",
"( 	c #CBE4FF",
"_ 	c #BFDDFF",
": 	c #ABD3FF",
"< 	c #B1D7FF",
"[ 	c #B2D6FF",
"} 	c #A5CFFF",
"| 	c #B7DAFF",
"1 	c #C0DFFF",
"2 	c #CAE3FF",
"3 	c #D0E7FF",
"4 	c #D3E9FF",
"5 	c #CEE3F9",
"6 	c #D8E4F3",
"7 	c #C6E1FF",
"8 	c #B3D8FF",
"9 	c #A5D1FF",
"0 	c #A3C9F2",
"a 	c #B0C7E1",
"b 	c #ACC1D7",
"c 	c #ACC7E2",
"d 	c #9AC4EF",
"e 	c #9CCBFB",
"f 	c #A4D1FF",
"g 	c #C1E0FF",
"h 	c #CAE5FF",
"i 	c #C1D8F1",
"j 	c #ADB0B8",
"k 	c #D2E7FF",
"l 	c #BADBFF",
"m 	c #A6D1FF",
"n 	c #9ECEFF",
"o 	c #95C0EB",
"p 	c #99B3D0",
"q 	c #92A3B6",
"r 	c #8798A9",
"s 	c #8C9EB0",
"t 	c #94ADC6",
"u 	c #8DB7E0",
"v 	c #8FC1F3",
"w 	c #94C8FD",
"x 	c #96CBFF",
"y 	c #9DCFFF",
"z 	c #AFD6FA",
"A 	c #B6D3EE",
"B 	c #A0B1C6",
"C 	c #B3D6F9",
"D 	c #BADCFF",
"E 	c #B9DCFF",
"F 	c #AFD7FF",
"G 	c #A0C7ED",
"H 	c #94B4D2",
"I 	c #879CAF",
"J 	c #798696",
"K 	c #8A909D",
"L 	c #979CA9",
"M 	c #909EB2",
"N 	c #85B1DD",
"O 	c #8AC2F6",
"P 	c #8DC8FE",
"Q 	c #8DC8FF",
"R 	c #8DC9FF",
"S 	c #8EC4F5",
"T 	c #99C0E3",
"U 	c #8DACCA",
"V 	c #A5B2C4",
"W 	c #B8DBFF",
"X 	c #C3E1FD",
"Y 	c #B5CFE8",
"Z 	c #AAC4DB",
"` 	c #9FB6CD",
" .	c #8A9EB2",
"..	c #778796",
"+.	c #A2A3AD",
"@.	c #94ACCA",
"#.	c #8CC9FF",
"$.	c #8AC8FF",
"%.	c #87C7FF",
"&.	c #84C5FE",
"*.	c #7CBAF0",
"=.	c #72A9D8",
"-.	c #6697C2",
";.	c #A1B9D3",
">.	c #AAC9E6",
",.	c #9BB2C8",
"'.	c #8EA4B8",
").	c #889DB0",
"!.	c #8094A6",
"~.	c #728595",
"{.	c #828B9A",
"].	c #9DACC1",
"^.	c #91CDFF",
"/.	c #88C9FF",
"(.	c #80C6FF",
"_.	c #7CC1FB",
":.	c #77B5E8",
"<.	c #79A5C9",
"[.	c #6790B2",
"}.	c #A2A9B6",
"|.	c #929DAB",
"1.	c #8B95A3",
"2.	c #7F8D9B",
"3.	c #798796",
"4.	c #6D7F90",
"5.	c #949DAA",
"6.	c #ADADB4",
"7.	c #A1C6E8",
"8.	c #93CEFF",
"9.	c #84C8FF",
"0.	c #7BC5FF",
"a.	c #79BDF4",
"b.	c #7FB1D9",
"c.	c #7E9EB6",
"d.	c #708CA4",
"e.	c #BACFE2",
"f.	c #A5D7FF",
"g.	c #8ACBFF",
"h.	c #7AC5FF",
"i.	c #78C1FA",
"j.	c #84B9E2",
"k.	c #85A6BF",
"l.	c #708A9F",
"m.	c #8191A2",
"n.	c #ADB1BB",
"o.	c #C6DBEE",
"p.	c #C2E4FF",
"q.	c #94D1FF",
"r.	c #78C6FF",
"s.	c #75C3FD",
"t.	c #85BBE3",
"u.	c #85A8C2",
"v.	c #6F8A9F",
"w.	c #6D8192",
"x.	c #A8ABB2",
"y.	c #ADB3BE",
"z.	c #CBE5F9",
"A.	c #C3E6FF",
"B.	c #9DD5FF",
"C.	c #75C5FF",
"D.	c #6EC0FD",
"E.	c #83B9E1",
"F.	c #81A5BF",
"G.	c #6B889D",
"H.	c #61798A",
"I.	c #9FA3AC",
"J.	c #C9E4F9",
"K.	c #BDE3FF",
"L.	c #96D3FF",
"M.	c #6EC3FF",
"N.	c #5FBAFB",
"O.	c #75B2DE",
"P.	c #7CA1BB",
"Q.	c #678499",
"R.	c #667B8C",
"S.	c #A5A7AE",
"T.	c #C0DDF3",
"U.	c #B4E0FF",
"V.	c #88CEFF",
"W.	c #65C0FF",
"X.	c #55B8FC",
"Y.	c #5BAADF",
"Z.	c #729DBB",
"`.	c #648398",
" +	c #6E8091",
".+	c #A7A9B0",
"++	c #A2B8CD",
"@+	c #A0D9FF",
"#+	c #73C6FF",
"$+	c #6DC4FF",
"%+	c #62BFFF",
"&+	c #5EB1EA",
"*+	c #669FC6",
"=+	c #64879F",
"-+	c #738495",
";+	c #80B4DC",
">+	c #81CDFF",
",+	c #86CFFF",
"'+	c #7FC5F4",
")+	c #76B7E3",
"!+	c #6EA6CC",
"~+	c #638EA9",
"{+	c #6F8597",
"]+	c #63B1E8",
"^+	c #58B7F6",
"/+	c #51A4DA",
"(+	c #4B97C9",
"_+	c #458EBC",
":+	c #4180A9",
"<+	c #467593",
"[+	c #949BA8",
"}+	c #5EAEE3",
"|+	c #3299DB",
"1+	c #2C85BF",
"2+	c #287CB1",
"3+	c #2575A8",
"4+	c #236E9D",
"5+	c #2C6E98",
"6+	c #ABABB2",
"7+	c #A9A9B1",
"8+	c #96B1C7",
"9+	c #8DAAC4",
"0+	c #8AA9C4",
"a+	c #88A8C4",
"b+	c #86A7C4",
"c+	c #83A6C4",
"d+	c #87A8C2",
"e+	c #ACB4BC",
"f+	c #82D0FF",
"g+	c #71C9FF",
"h+	c #69C6FF",
"i+	c #65C5FF",
"j+	c #5DC2FF",
"k+	c #51BDFF",
"l+	c #50BCFC",
"m+	c #88A7C0",
"n+	c #94D7FF",
"o+	c #8BD4FF",
"p+	c #83D1FF",
"q+	c #7FCFFF",
"r+	c #79CDFF",
"s+	c #6DC9FF",
"t+	c #5BB2E7",
"u+	c #82A0B9",
"v+	c #49BAFF",
"w+	c #3CB6FF",
"x+	c #2FB2FF",
"y+	c #27AEFF",
"z+	c #1DABFF",
"A+	c #199CEA",
"B+	c #1489CD",
"C+	c #7C9AB4",
"D+	c #84D2FF",
"E+	c #7ECFFF",
"F+	c #75C3F2",
"G+	c #71BDEA",
"H+	c #6CB6E1",
"I+	c #61A4CC",
"J+	c #478DB6",
"K+	c #7E99B0",
"L+	c #7DCCFA",
"M+	c #73B6DD",
"N+	c #68A4C7",
"O+	c #629CBE",
"P+	c #5F97B7",
"Q+	c #568BA9",
"R+	c #457E9F",
"S+	c #7E97AD",
"T+	c #6AAFD6",
"U+	c #5C93B3",
"V+	c #50809C",
"W+	c #4A7892",
"X+	c #49758F",
"Y+	c #45718A",
"Z+	c #3D718F",
"`+	c #839CAF",
"                                                                ",
"                                                                ",
"                                                                ",
"                      . + @ # # $ % & *                         ",
"                  = @ - ; > , ' ) ! ~ ~ ~ {                     ",
"                ] ^ / ( _ : < [ } | 1 2 3 4 5                   ",
"              6 ~ 7 8 9 0 a b b c d e f < g h i j               ",
"              k l m n o p q r s t u v w x y z A B               ",
"            C D E F G H I J K L M N O P Q R S T U               ",
"          V W X Y Z `  ...+.      @.#.$.%.&.*.=.-.              ",
"          ;.>.,.'.).!.~.{.        ].^./.(._.:.<.[.              ",
"            }.|.1.2.3.4.5.      6.7.8.9.0.a.b.c.d.              ",
"                                e.f.g.h.i.j.k.l.m.              ",
"                            n.o.p.q.r.s.t.u.v.w.x.              ",
"                          y.z.A.B.C.D.E.F.G.H.I.                ",
"                          J.K.L.M.N.O.P.Q.R.S.                  ",
"                        T.U.V.W.X.Y.Z.`. +.+                    ",
"                      ++@+#+$+%+&+*+=+-+                        ",
"                      ;+>+,+'+)+!+~+{+                          ",
"                      ]+^+/+(+_+:+<+[+                          ",
"                      }+|+1+2+3+4+5+                            ",
"                        6+7+7+7+7+                              ",
"                      8+9+0+a+b+c+d+e+                          ",
"                      f+g+h+i+j+k+l+m+                          ",
"                      n+o+p+q+r+s+t+u+                          ",
"                      v+w+x+y+z+A+B+C+                          ",
"                      D+E+F+G+H+I+J+K+                          ",
"                      L+M+N+O+P+Q+R+S+                          ",
"                      T+U+V+W+X+Y+Z+`+                          ",
"                                                                ",
"                                                                ",
"                                                                "};
