/* XPM */
static const char * module_dis_xpm[] = {
"16 16 32 1",
" 	c None",
".	c #C7C7C7",
"+	c #CBCBCB",
"@	c #C8C8C8",
"#	c #C6C6C6",
"$	c #909090",
"%	c #AEAEAE",
"&	c #D0D0D0",
"*	c #DADADA",
"=	c #828282",
"-	c #838383",
";	c #959595",
">	c #B5B5B5",
",	c #C9C9C9",
"'	c #CACACA",
")	c #CDCDCD",
"!	c #D8D8D8",
"~	c #DFDFDF",
"{	c #858585",
"]	c #9A9A9A",
"^	c #BCBCBC",
"/	c #D7D7D7",
"(	c #DEDEDE",
"_	c #848484",
":	c #808080",
"<	c #888888",
"[	c #A5A5A5",
"}	c #D1D1D1",
"|	c #E0E0E0",
"1	c #818181",
"2	c #E1E1E1",
"3	c #8C8C8C",
"       ..       ",
"     ......     ",
"   ..........   ",
"  +@.........#  ",
" $%.+@.....#.&* ",
" =-;>,'..##)!~~ ",
" {{=-]^+#+/(~(( ",
" {{{_:<[}(|(((( ",
" {{{{{1<!2((((( ",
" {{{{{=3/2((((( ",
" {{{{{=3/2((((( ",
" {{{{{=3/2((((( ",
" {{{{{=3/2((((( ",
"   {{{=3/2(((   ",
"     {=3/2(     ",
"       3/       "};
