/* XPM */
static const char * TBB_SEARCH_LARGE_xpm[] = {
"32 32 418 2",
"  	c None",
". 	c #A8B9CA",
"+ 	c #A1B2C5",
"@ 	c #A7B7CB",
"# 	c #A6BED1",
"$ 	c #A6B3C1",
"% 	c #A2BCD2",
"& 	c #A4BDD4",
"* 	c #A4BBD0",
"= 	c #ACC2D7",
"- 	c #A1BDD5",
"; 	c #A5B2BE",
"> 	c #A7B3C0",
", 	c #A9D3EF",
"' 	c #BFDFF5",
") 	c #D1E8F8",
"! 	c #B2DBF7",
"~ 	c #97B3CA",
"{ 	c #A4AEBC",
"] 	c #A4D3F3",
"^ 	c #BCE3FA",
"/ 	c #D9EFFC",
"( 	c #D2ECFC",
"_ 	c #A8D7F5",
": 	c #95ADC3",
"< 	c #A1B3C4",
"[ 	c #B7E3FF",
"} 	c #B8E3FF",
"| 	c #CAEAFF",
"1 	c #CFECFF",
"2 	c #9AB6CD",
"3 	c #9EAABB",
"4 	c #A9DDFF",
"5 	c #C6E9FF",
"6 	c #EAF7FF",
"7 	c #DAF1FF",
"8 	c #BDE3FC",
"9 	c #92ABC3",
"0 	c #9CB1C7",
"a 	c #92D3FD",
"b 	c #CCEBFF",
"c 	c #D9F1FF",
"d 	c #BDE5FF",
"e 	c #98B4CD",
"f 	c #98A8BA",
"g 	c #7BCCFF",
"h 	c #D6EFFF",
"i 	c #E2F4FF",
"j 	c #A6D8F9",
"k 	c #94AAC0",
"l 	c #8FADC8",
"m 	c #82CCFE",
"n 	c #CDE9FF",
"o 	c #DAF0FF",
"p 	c #95B1CB",
"q 	c #93A5B9",
"r 	c #6BC5FF",
"s 	c #D2ECFF",
"t 	c #D3ECFF",
"u 	c #D8EFFE",
"v 	c #9AD2F6",
"w 	c #99ABC0",
"x 	c #7EB5DE",
"y 	c #9DD8FF",
"z 	c #C3E6FF",
"A 	c #CCEAFF",
"B 	c #ABDFFF",
"C 	c #AACBE5",
"D 	c #9FADC0",
"E 	c #A4B5C9",
"F 	c #9AC3E2",
"G 	c #9CD8FF",
"H 	c #C7E8FF",
"I 	c #C9E9FF",
"J 	c #CEEBFF",
"K 	c #95D1F9",
"L 	c #9BADC0",
"M 	c #9AB1C7",
"N 	c #97D5FE",
"O 	c #C0E6FF",
"P 	c #B9E2FF",
"Q 	c #B8E1FF",
"R 	c #B8E4FF",
"S 	c #B2E1FE",
"T 	c #BFE5FE",
"U 	c #BAE4FF",
"V 	c #ACDEFF",
"W 	c #C1E7FF",
"X 	c #C1E6FF",
"Y 	c #C2E6FF",
"Z 	c #AADDFE",
"` 	c #93B0CB",
" .	c #8FBEE0",
"..	c #A7DDFF",
"+.	c #B5E1FF",
"@.	c #ACDCFF",
"#.	c #AEDFFF",
"$.	c #BCE5FF",
"%.	c #D0EDFF",
"&.	c #B6E2FF",
"*.	c #B8E2FF",
"=.	c #B9E3FF",
"-.	c #C6E8FF",
";.	c #C2E7FF",
">.	c #94C2E3",
",.	c #82BFE7",
"'.	c #9CD7FF",
").	c #A5DAFF",
"!.	c #9FD6FF",
"~.	c #9FD7FF",
"{.	c #DCF1FF",
"].	c #BDE4FF",
"^.	c #A3DAFF",
"/.	c #AFDFFF",
"(.	c #BDE6FF",
"_.	c #C8EAFF",
":.	c #9CCCEE",
"<.	c #ABB1BA",
"[.	c #AAB1BC",
"}.	c #73BAED",
"|.	c #8FD2FF",
"1.	c #97D4FF",
"2.	c #92D2FF",
"3.	c #95D4FF",
"4.	c #B1E0FF",
"5.	c #ACDDFF",
"6.	c #D7F0FF",
"7.	c #B7E2FF",
"8.	c #A4DBFF",
"9.	c #A5DBFF",
"0.	c #A1D0F2",
"a.	c #A6AFBB",
"b.	c #A4B0BE",
"c.	c #6BBDF2",
"d.	c #83CDFF",
"e.	c #87CEFF",
"f.	c #84CDFF",
"g.	c #8AD0FF",
"h.	c #B6E3FF",
"i.	c #9BD7FF",
"j.	c #CEECFF",
"k.	c #ABDEFF",
"l.	c #87CFFF",
"m.	c #99D7FF",
"n.	c #9BD8FF",
"o.	c #AADEFF",
"p.	c #A4D6F7",
"q.	c #A0AEBF",
"r.	c #9EB1C4",
"s.	c #6AC2FB",
"t.	c #77C9FF",
"u.	c #78C9FF",
"v.	c #76C9FF",
"w.	c #7FCCFF",
"x.	c #91D4FF",
"y.	c #79CAFF",
"z.	c #A4DCFF",
"A.	c #8BD1FF",
"B.	c #93D4FF",
"C.	c #9FD9FF",
"D.	c #AFDFFD",
"E.	c #9BAFC4",
"F.	c #98B6D1",
"G.	c #5EC0FF",
"H.	c #45B5FF",
"I.	c #6BC4FF",
"J.	c #6CC5FF",
"K.	c #71C7FF",
"L.	c #8AD1FF",
"M.	c #75CAFF",
"N.	c #6EC6FF",
"O.	c #7ACAFF",
"P.	c #7FCDFF",
"Q.	c #8CD1FF",
"R.	c #98D6FF",
"S.	c #B5E2FF",
"T.	c #95B4CD",
"U.	c #96BDD9",
"V.	c #4AB9FF",
"W.	c #31AEFF",
"X.	c #32AEFF",
"Y.	c #2BABFF",
"Z.	c #2CADFF",
"`.	c #36B1FF",
" +	c #37B1FF",
".+	c #46B8FF",
"++	c #53BCFF",
"@+	c #5DBFFF",
"#+	c #67C2FF",
"$+	c #78CAFF",
"%+	c #BAE3FF",
"&+	c #B3E1FF",
"*+	c #93B6D5",
"=+	c #99C2E0",
"-+	c #48B8FD",
";+	c #20A8FF",
">+	c #27AAFF",
",+	c #29ACFF",
"'+	c #2DADFF",
")+	c #34B0FF",
"!+	c #41B6FF",
"~+	c #41B4FF",
"{+	c #4FB9FF",
"]+	c #54BAFF",
"^+	c #58BDFF",
"/+	c #65C2FF",
"(+	c #B9E2FE",
"_+	c #8FB8D8",
":+	c #9CC5E5",
"<+	c #4AB6FA",
"[+	c #23A8FD",
"}+	c #2AADFF",
"|+	c #2FAEFF",
"1+	c #2FADFD",
"2+	c #36AEFA",
"3+	c #48B1F5",
"4+	c #64BBF4",
"5+	c #5AB5F3",
"6+	c #4CB3F7",
"7+	c #4CB5FA",
"8+	c #55BBFE",
"9+	c #66C2FF",
"0+	c #A2DAFE",
"a+	c #B7E2FD",
"b+	c #92BCDB",
"c+	c #96C4E5",
"d+	c #4AB4F9",
"e+	c #27ABFD",
"f+	c #30AFFF",
"g+	c #31ADFD",
"h+	c #31A9F6",
"i+	c #33A1E7",
"j+	c #52A1D4",
"k+	c #71A5C9",
"l+	c #66A2C9",
"m+	c #57A6DC",
"n+	c #5AB2EC",
"o+	c #5FBCF9",
"p+	c #60BEFE",
"q+	c #68C3FF",
"r+	c #9ED9FE",
"s+	c #BBE4FD",
"t+	c #93BEDF",
"u+	c #92C3E6",
"v+	c #4BB5F9",
"w+	c #2DADFD",
"x+	c #36B0FF",
"y+	c #35ACFB",
"z+	c #2AA2ED",
"A+	c #278ECD",
"B+	c #3779A6",
"C+	c #48718D",
"D+	c #477593",
"E+	c #4186B3",
"F+	c #5CA8DA",
"G+	c #68BBF2",
"H+	c #65BFFC",
"I+	c #6EC5FF",
"J+	c #9BD7FE",
"K+	c #BDE4FD",
"L+	c #95C0E2",
"M+	c #94C6E9",
"N+	c #49B4F8",
"O+	c #35AEFD",
"P+	c #3FB3FF",
"Q+	c #51B9FC",
"R+	c #5AB3EC",
"S+	c #388FC6",
"T+	c #5A7E9B",
"U+	c #6C7B8E",
"V+	c #687A8D",
"W+	c #557E9F",
"X+	c #3289C2",
"Y+	c #4CA9E8",
"Z+	c #5AB9FA",
"`+	c #69C3FF",
" @	c #97D4FE",
".@	c #B5E1FC",
"+@	c #96C3E5",
"@@	c #9CCAEC",
"#@	c #4DB3F7",
"$@	c #39AFFD",
"%@	c #49B6FF",
"&@	c #74C7FE",
"*@	c #A0D5F7",
"=@	c #6EB0DD",
"-@	c #899AAD",
";@	c #879AAF",
">@	c #2687C5",
",@	c #3FA6E9",
"'@	c #52B8FC",
")@	c #9BD5FE",
"!@	c #BDE2FC",
"~@	c #9AC6E8",
"{@	c #98CBED",
"]@	c #52B4F7",
"^@	c #3FB1FD",
"/@	c #4EB9FF",
"(@	c #76C8FF",
"_@	c #A4D8FB",
":@	c #82C2EF",
"<@	c #87A2BC",
"[@	c #869FB6",
"}@	c #3B9CDB",
"|@	c #4EAFF1",
"1@	c #5ABDFD",
"2@	c #6CC3FF",
"3@	c #9DD7FE",
"4@	c #BFE3FB",
"5@	c #99C7EA",
"6@	c #91C7ED",
"7@	c #53B4F6",
"8@	c #45B5FD",
"9@	c #53BBFF",
"0@	c #79C9FF",
"a@	c #A7DBFE",
"b@	c #89CBF9",
"c@	c #88B1D0",
"d@	c #809FBD",
"e@	c #4DAFEF",
"f@	c #5ABBF8",
"g@	c #62C1FF",
"h@	c #70C5FF",
"i@	c #9DD5FD",
"j@	c #BCE1FB",
"k@	c #9AC8EA",
"l@	c #89C5EF",
"m@	c #57B4F5",
"n@	c #4EB7FD",
"o@	c #5BBDFF",
"p@	c #7CCAFF",
"q@	c #89CCFB",
"r@	c #8BB8DA",
"s@	c #7B9FC0",
"t@	c #59B8F6",
"u@	c #63BEFC",
"v@	c #74C7FF",
"w@	c #9ED5FD",
"x@	c #9AC9EB",
"y@	c #8FC7ED",
"z@	c #63B7F1",
"A@	c #5CBBFA",
"B@	c #68C2FD",
"C@	c #85CDFE",
"D@	c #AEDCFB",
"E@	c #9AD0F7",
"F@	c #91B7D6",
"G@	c #7FA3C2",
"H@	c #6CBFF6",
"I@	c #72C2FA",
"J@	c #7ECCFF",
"K@	c #A4D8FD",
"L@	c #C1E4FB",
"M@	c #A4CDED",
"N@	c #9BC2DD",
"O@	c #7AB0D5",
"P@	c #77B3D9",
"Q@	c #81BADD",
"R@	c #97C5E2",
"S@	c #B9D6EA",
"T@	c #A8CAE3",
"U@	c #91B0C9",
"V@	c #86A3BB",
"W@	c #87BCE0",
"X@	c #8DC1E5",
"Y@	c #8FC3E8",
"Z@	c #95C6EB",
"`@	c #B1D5EF",
" #	c #C9E1F1",
".#	c #AECEE6",
"+#	c #7FA0B5",
"@#	c #577C94",
"##	c #4D758E",
"$#	c #537891",
"%#	c #7390A5",
"&#	c #A3B5C5",
"*#	c #8CA5BA",
"=#	c #809AB3",
"-#	c #7691A8",
";#	c #6C92A9",
">#	c #7695AB",
",#	c #7896AD",
"'#	c #7A98AF",
")#	c #9CB2C4",
"!#	c #BACAD7",
"~#	c #A1BCD0",
"{#	c #627B8D",
"]#	c #264054",
"^#	c #153143",
"/#	c #1C3242",
"(#	c #3E5160",
"_#	c #707F8D",
":#	c #697B8E",
"<#	c #8093A6",
"[#	c #768699",
"}#	c #415D6F",
"|#	c #425A69",
"1#	c #3F5565",
"2#	c #395063",
"3#	c #657888",
"4#	c #92A0AD",
"5#	c #8BA0B3",
"6#	c #9DA2A9",
"7#	c #79808C",
"8#	c #727B86",
"9#	c #747A87",
"0#	c #7D828D",
"a#	c #858A96",
"b#	c #9196A1",
"c#	c #ADB0B7",
"d#	c #ADAEB4",
"e#	c #828A96",
"f#	c #707985",
"g#	c #6B7480",
"h#	c #676E7C",
"i#	c #737A88",
"j#	c #808795",
"k#	c #99A1AC",
"                                                                ",
"                                                                ",
"                    . + @ # $       % & * = - ;                 ",
"                  > , ' ) ! ~     { ] ^ / ( _ :                 ",
"                  < [ } | 1 2     3 4 5 6 7 8 9                 ",
"                  0 a b c d e     f g h h i j k                 ",
"                  l m n o [ p     q r s t u v w                 ",
"                  x y z A B C D E F G H I J K L                 ",
"                M N O P Q R S T U V W X Y b Z `                 ",
"                 ...+.@.@.#.$.%.1 d &.*.=.-.;.>.                ",
"                ,.'.).!.~.$.} U {.].^././.(._.:.<.              ",
"              [.}.|.1.2.3.$.4.5.6.7.3.8.9.+.| 0.a.              ",
"              b.c.d.e.f.g.h.8.i.j.k.l.m.n.o.A p.q.              ",
"              r.s.t.u.v.w.[ x.y.z.A.w.x.B.C.1 D.E.              ",
"              F.G.H.I.J.K.L.M.N.w.O.P.g.Q.R.O S.T.              ",
"              U.V.W.X.X.W.Y.Z.`. +.+++@+#+$+%+&+*+              ",
"              =+-+;+>+,+'+W.)+!+~+.+{+]+^+/+k.(+_+              ",
"              :+<+[+}+|+1+2+3+4+5+6+7+8+@+9+0+a+b+              ",
"              c+d+e+f+g+h+i+j+k+l+m+n+o+p+q+r+s+t+              ",
"              u+v+w+x+y+z+A+B+C+D+E+F+G+H+I+J+K+L+              ",
"              M+N+O+P+Q+R+S+T+U+V+W+X+Y+Z+`+ @.@+@              ",
"              @@#@$@%@&@*@=@-@    ;@>@,@'@#+)@!@~@              ",
"              {@]@^@/@(@_@:@<@    [@}@|@1@2@3@4@5@              ",
"              6@7@8@9@0@a@b@c@    d@e@f@g@h@i@j@k@              ",
"              l@m@n@o@p@a@q@r@    s@t@u@`+v@w@j@x@              ",
"              y@z@A@B@C@D@E@F@    G@H@I@v.J@K@L@M@              ",
"              N@O@P@Q@R@S@T@U@    V@W@X@Y@Z@`@ #.#              ",
"              +#@###$#%#&#*#=#    -#;#>#,#'#)#!#~#              ",
"              {#]#^#/#(#_#:#<#    [#}#|#1#2#3#4#5#              ",
"              6#7#8#9#0#a#b#c#    d#e#f#g#h#i#j#k#              ",
"                                                                ",
"                                                                "};
