/* XPM */
static char * building_large_xpm[] = {
"32 32 507 2",
"  	c None",
". 	c #A7B2AB",
"+ 	c #9DA193",
"@ 	c #A09988",
"# 	c #9E9C8D",
"$ 	c #9CA79B",
"% 	c #9FB1A8",
"& 	c #A3B3AC",
"* 	c #9EADA3",
"= 	c #9EA79A",
"- 	c #9DA89C",
"; 	c #A7B3AB",
"> 	c #ABB8B3",
", 	c #9BAA9E",
"' 	c #9A927E",
") 	c #B37C66",
"! 	c #CD7762",
"~ 	c #D28873",
"{ 	c #CE8571",
"] 	c #C77B64",
"^ 	c #BF816A",
"/ 	c #B6846D",
"( 	c #C68069",
"_ 	c #C9836B",
": 	c #C6866F",
"< 	c #BA826A",
"[ 	c #9F9B8A",
"} 	c #AAAEA5",
"| 	c #B67B65",
"1 	c #BC765D",
"2 	c #D4826C",
"3 	c #F0A99A",
"4 	c #FFB9B1",
"5 	c #FEBFB6",
"6 	c #FEBBB0",
"7 	c #FDAEA0",
"8 	c #F79F8E",
"9 	c #F09D8A",
"0 	c #FAA695",
"a 	c #FBAB9B",
"b 	c #FAAC9B",
"c 	c #EF967E",
"d 	c #C18060",
"e 	c #949783",
"f 	c #A3B1AA",
"g 	c #9A927F",
"h 	c #E3795F",
"i 	c #F5A797",
"j 	c #FBC1B6",
"k 	c #F9CCC2",
"l 	c #F6C9BF",
"m 	c #F4C2B4",
"n 	c #F3BFAF",
"o 	c #F2BCAD",
"p 	c #F2B6A3",
"q 	c #F2B3A0",
"r 	c #EFB39E",
"s 	c #EEAF99",
"t 	c #EDAD96",
"u 	c #EFAD96",
"v 	c #E99678",
"w 	c #BC8461",
"x 	c #AC8867",
"y 	c #A28E71",
"z 	c #A5ACA1",
"A 	c #987B5F",
"B 	c #EA977F",
"C 	c #F7C9BB",
"D 	c #F4C5B7",
"E 	c #F1BCAC",
"F 	c #F0B5A3",
"G 	c #EEB19D",
"H 	c #EDAD97",
"I 	c #EBA992",
"J 	c #EAA88E",
"K 	c #EAA58A",
"L 	c #E8A283",
"M 	c #E69D7E",
"N 	c #E49B7A",
"O 	c #E49E7D",
"P 	c #E6A281",
"Q 	c #E19A76",
"R 	c #DE9870",
"S 	c #D28E62",
"T 	c #A08963",
"U 	c #AEB4AD",
"V 	c #9FA89D",
"W 	c #A86F48",
"X 	c #E9A387",
"Y 	c #F1BEAB",
"Z 	c #EEB7A1",
"` 	c #ECB39B",
" .	c #EBB095",
"..	c #E9AC90",
"+.	c #E8A98B",
"@.	c #E6A685",
"#.	c #E4A380",
"$.	c #E3A07B",
"%.	c #E19D76",
"&.	c #DF9B71",
"*.	c #DD986D",
"=.	c #DB976A",
"-.	c #DA986A",
";.	c #DB9A6D",
">.	c #DD9E6F",
",.	c #D69159",
"'.	c #B27E45",
").	c #A0AA9E",
"!.	c #958A6D",
"~.	c #D28359",
"{.	c #EFBAA0",
"].	c #EAB79E",
"^.	c #E8B195",
"/.	c #E6AE90",
"(.	c #E4AC8B",
"_.	c #E2A984",
":.	c #E1A680",
"<.	c #DFA37B",
"[.	c #DDA176",
"}.	c #DB9F72",
"|.	c #DA9C6D",
"1.	c #D79A68",
"2.	c #D59863",
"3.	c #D3965F",
"4.	c #D1955C",
"5.	c #D09559",
"6.	c #CF9558",
"7.	c #CB8D47",
"8.	c #B37E37",
"9.	c #99A395",
"0.	c #939F8F",
"a.	c #BB8353",
"b.	c #E8B291",
"c.	c #E8BA9C",
"d.	c #E5B390",
"e.	c #E1AE89",
"f.	c #DFAC84",
"g.	c #DDA97F",
"h.	c #DBA87A",
"i.	c #D9A475",
"j.	c #D7A271",
"k.	c #D5A16C",
"l.	c #D49F68",
"m.	c #D19D63",
"n.	c #D09B5F",
"o.	c #CD995A",
"p.	c #CB9957",
"q.	c #C99853",
"r.	c #C6964E",
"s.	c #C4964C",
"t.	c #C19140",
"u.	c #B18835",
"v.	c #939D8A",
"w.	c #9CA395",
"x.	c #99885E",
"y.	c #D3A172",
"z.	c #E6BB97",
"A.	c #DFB58D",
"B.	c #DDB084",
"C.	c #D9AD7F",
"D.	c #D8AB79",
"E.	c #D6AA76",
"F.	c #D4A872",
"G.	c #D2A56D",
"H.	c #CFA469",
"I.	c #CDA364",
"J.	c #CBA260",
"K.	c #C9A05C",
"L.	c #C69F57",
"M.	c #C49E53",
"N.	c #C29E4F",
"O.	c #BF9C4C",
"P.	c #BC9C47",
"Q.	c #BB9C46",
"R.	c #BB9C42",
"S.	c #AC953D",
"T.	c #879270",
"U.	c #A8A898",
"V.	c #A48C5A",
"W.	c #CFA36E",
"X.	c #E0BB91",
"Y.	c #DBB88A",
"Z.	c #D7B17F",
"`.	c #D5B17A",
" +	c #D3AF78",
".+	c #D0AD72",
"++	c #CCA868",
"@+	c #C8A45E",
"#+	c #C6A35A",
"$+	c #C3A256",
"%+	c #C1A153",
"&+	c #BFA150",
"*+	c #BDA14D",
"=+	c #BAA14A",
"-+	c #B8A248",
";+	c #B6A044",
">+	c #B4A042",
",+	c #B2A240",
"'+	c #B2A340",
")+	c #B2A643",
"!+	c #AFA745",
"~+	c #999D50",
"{+	c #9CA690",
"]+	c #9DA18F",
"^+	c #AD9254",
"/+	c #D7B376",
"(+	c #D6B983",
"_+	c #D2B57B",
":+	c #CFB477",
"<+	c #C8AD68",
"[+	c #BFA251",
"}+	c #B99C43",
"|+	c #B59A3D",
"1+	c #B29939",
"2+	c #B19A37",
"3+	c #B09C37",
"4+	c #AF9D37",
"5+	c #AD9E37",
"6+	c #ADA036",
"7+	c #ABA136",
"8+	c #AAA336",
"9+	c #A8A437",
"0+	c #A7A536",
"a+	c #A6A937",
"b+	c #A6AA39",
"c+	c #A7AE3E",
"d+	c #ADB448",
"e+	c #A4B047",
"f+	c #8A9A6A",
"g+	c #A6B0AD",
"h+	c #938D53",
"i+	c #BDA75C",
"j+	c #CCB978",
"k+	c #C5B368",
"l+	c #B9A74D",
"m+	c #B19F3B",
"n+	c #AC9A30",
"o+	c #A99A2C",
"p+	c #A89D2E",
"q+	c #A69F2F",
"r+	c #A6A230",
"s+	c #A6A331",
"t+	c #A5A532",
"u+	c #A4A632",
"v+	c #A3A833",
"w+	c #A2AA34",
"x+	c #A1AD35",
"y+	c #9FAF36",
"z+	c #9FB036",
"A+	c #9EB337",
"B+	c #9DB438",
"C+	c #9EB73B",
"D+	c #A1BC42",
"E+	c #9EBD46",
"F+	c #8DA660",
"G+	c #A7ACAA",
"H+	c #8D9256",
"I+	c #ACA449",
"J+	c #B3AD4B",
"K+	c #AAA63A",
"L+	c #A7A332",
"M+	c #A5A430",
"N+	c #A4A633",
"O+	c #A4AA35",
"P+	c #A3AC36",
"Q+	c #A1AC36",
"R+	c #A0B037",
"S+	c #9FB238",
"T+	c #9EB338",
"U+	c #9DB539",
"V+	c #9CB739",
"W+	c #9BB93A",
"X+	c #9ABB3B",
"Y+	c #99BC3B",
"Z+	c #98BF3C",
"`+	c #97C03C",
" @	c #96C23E",
".@	c #99C643",
"+@	c #9ECD4A",
"@@	c #90BA53",
"#@	c #8F9F85",
"$@	c #A1A9A5",
"%@	c #96A056",
"&@	c #A6AE38",
"*@	c #A2AD36",
"=@	c #9FAD34",
"-@	c #A0AF36",
";@	c #9FB138",
">@	c #9EB238",
",@	c #9CB73A",
"'@	c #9BB83A",
")@	c #9ABA3B",
"!@	c #98BD3C",
"~@	c #97BF3C",
"{@	c #96C03D",
"]@	c #96C23D",
"^@	c #95C43E",
"/@	c #94C63F",
"(@	c #92C83F",
"_@	c #92C93F",
":@	c #91CB40",
"<@	c #90CC40",
"[@	c #91CF45",
"}@	c #97D54C",
"|@	c #94D34F",
"1@	c #8BB268",
"2@	c #AAADAC",
"3@	c #95A37F",
"4@	c #90A93C",
"5@	c #A0BA39",
"6@	c #9CBA3C",
"7@	c #9BBA3A",
"8@	c #9ABC3B",
"9@	c #99BE3B",
"0@	c #98C03C",
"a@	c #97C13C",
"b@	c #96C33D",
"c@	c #95C53E",
"d@	c #94C63E",
"e@	c #93C83E",
"f@	c #93C93F",
"g@	c #92CB3F",
"h@	c #91CC40",
"i@	c #90CE40",
"j@	c #8FD041",
"k@	c #8FD242",
"l@	c #8DD342",
"m@	c #8CD442",
"n@	c #8CD643",
"o@	c #8BD743",
"p@	c #8BD945",
"q@	c #8BDB49",
"r@	c #8EE149",
"s@	c #80C64D",
"t@	c #95A88C",
"u@	c #8FA277",
"v@	c #82AA35",
"w@	c #93BE3A",
"x@	c #94C23D",
"y@	c #94C53E",
"z@	c #93C63E",
"A@	c #92C93E",
"B@	c #93CB40",
"C@	c #92CC40",
"D@	c #8FD042",
"E@	c #8ED142",
"F@	c #8DD242",
"G@	c #8CD343",
"H@	c #8CD542",
"I@	c #8BD643",
"J@	c #8AD843",
"K@	c #89D944",
"L@	c #89DB45",
"M@	c #88DD46",
"N@	c #88DF46",
"O@	c #87E047",
"P@	c #84E046",
"Q@	c #82DD45",
"R@	c #7BD543",
"S@	c #77D23E",
"T@	c #6CBC3F",
"U@	c #8FA882",
"V@	c #90A087",
"W@	c #719E3A",
"X@	c #7BB134",
"Y@	c #7FB639",
"Z@	c #81BC3B",
"`@	c #80BD3C",
" #	c #80C23C",
".#	c #83C73E",
"+#	c #85CB40",
"@#	c #85D141",
"##	c #87D543",
"$#	c #87D944",
"%#	c #86D943",
"&#	c #83D744",
"*#	c #80D343",
"=#	c #7DD142",
"-#	c #7BD141",
";#	c #7AD141",
">#	c #79D342",
",#	c #7AD644",
"'#	c #7BDA45",
")#	c #7ADC45",
"!#	c #77D844",
"~#	c #6ECB40",
"{#	c #62B838",
"]#	c #54AB2C",
"^#	c #62A047",
"/#	c #A1AA9D",
"(#	c #A6ADA2",
"_#	c #6B9549",
":#	c #5B9426",
"<#	c #5E972D",
"[#	c #5D972C",
"}#	c #5B982B",
"|#	c #5D9D2D",
"1#	c #63A532",
"2#	c #67AE36",
"3#	c #6CBA3A",
"4#	c #74C73F",
"5#	c #7CD543",
"6#	c #7CDB44",
"7#	c #78D643",
"8#	c #72CD3F",
"9#	c #6AC33A",
"0#	c #64B73A",
"a#	c #5EB234",
"b#	c #5BAF33",
"c#	c #5CB136",
"d#	c #5FB638",
"e#	c #5EB839",
"f#	c #5BB337",
"g#	c #51A530",
"h#	c #4A942F",
"i#	c #5A8F48",
"j#	c #86A07E",
"k#	c #869C7C",
"l#	c #528236",
"m#	c #447825",
"n#	c #4B7832",
"o#	c #537D3C",
"p#	c #4B7A33",
"q#	c #427A25",
"r#	c #458027",
"s#	c #4B8D2A",
"t#	c #59A932",
"u#	c #6AC63E",
"v#	c #72D844",
"w#	c #71D844",
"x#	c #66B644",
"y#	c #5C9845",
"z#	c #519C34",
"A#	c #4C8936",
"B#	c #488234",
"C#	c #418129",
"D#	c #3F8427",
"E#	c #41852A",
"F#	c #3D8626",
"G#	c #43842F",
"H#	c #709066",
"I#	c #A2A9A1",
"J#	c #93A38E",
"K#	c #84997C",
"L#	c #8F9E8A",
"M#	c #9BA498",
"N#	c #8E9E8A",
"O#	c #7D9475",
"P#	c #7B9272",
"Q#	c #758F6C",
"R#	c #5B9046",
"S#	c #59B538",
"T#	c #6ADA43",
"U#	c #6FDE47",
"V#	c #61974F",
"W#	c #589745",
"X#	c #5A9B46",
"Y#	c #84947F",
"Z#	c #8E9C89",
"`#	c #7F9578",
" $	c #799371",
".$	c #7A9272",
"+$	c #789470",
"@$	c #889D82",
"#$	c #8C9989",
"$$	c #61B348",
"%$	c #66DE42",
"&$	c #6AE348",
"*$	c #60C245",
"=$	c #5CB842",
"-$	c #85A17E",
";$	c #AAA9AA",
">$	c #6FBD59",
",$	c #65E443",
"'$	c #65E146",
")$	c #61BF47",
"!$	c #80A476",
"~$	c #A9A8A8",
"{$	c #73CB5C",
"]$	c #69EF45",
"^$	c #67DF46",
"/$	c #74996A",
"($	c #A5A5A5",
"_$	c #75D55B",
":$	c #6DF947",
"<$	c #6DEC4A",
"[$	c #7DA472",
"}$	c #A5A5A4",
"|$	c #73D25A",
"1$	c #6CF647",
"2$	c #6EF14A",
"3$	c #72B760",
"4$	c #A7A8A6",
"5$	c #6CBD56",
"6$	c #5ED83E",
"7$	c #62D841",
"8$	c #6BB256",
"9$	c #ADB1AB",
"0$	c #ACACAB",
"a$	c #61AC4C",
"b$	c #45AC29",
"c$	c #48AF2D",
"d$	c #67A157",
"e$	c #87A97E",
"f$	c #6E9A62",
"g$	c #709E63",
"h$	c #90AA89",
"                                                                ",
"                                                                ",
"                    . + @ # $ % & * = - ;                       ",
"              > , ' ) ! ~ { ] ^ / ( _ : < [                     ",
"            } | 1 2 3 4 5 6 7 8 9 0 a b c d e f                 ",
"            g h i j k l m n o p q r s t u v w x y z             ",
"            A B C D E F G H I J K L M N O P Q R S T U           ",
"          V W X Y Z `  ...+.@.#.$.%.&.*.=.-.;.>.,.'.).          ",
"          !.~.{.].^./.(._.:.<.[.}.|.1.2.3.4.5.6.7.8.9.          ",
"        0.a.b.c.d.e.f.g.h.i.j.k.l.m.n.o.p.q.r.s.t.u.v.          ",
"      w.x.y.z.A.B.C.D.E.F.G.H.I.J.K.L.M.N.O.P.Q.R.S.T.          ",
"    U.V.W.X.Y.Z.`. +.+++@+#+$+%+&+*+=+-+;+>+,+'+)+!+~+{+        ",
"    ]+^+/+(+_+:+<+[+}+|+1+2+3+4+5+6+7+8+9+0+a+b+c+d+e+f+        ",
"    g+h+i+j+k+l+m+n+o+p+q+r+s+t+u+v+w+x+y+z+A+B+C+D+E+F+G+      ",
"      H+I+J+K+L+M+N+O+P+Q+R+R+S+T+U+V+W+X+Y+Z+`+ @.@+@@@#@      ",
"    $@%@&@*@=@-@;@>@U+,@'@)@Y+!@~@{@]@^@/@(@_@:@<@[@}@|@1@2@    ",
"    3@4@5@6@7@8@9@0@a@b@c@d@e@f@g@h@i@j@k@l@m@n@o@p@q@r@s@t@    ",
"    u@v@w@x@y@z@A@B@C@i@D@E@F@G@H@I@J@K@L@M@N@O@P@Q@R@S@T@U@    ",
"    V@W@X@Y@Z@`@ #.#+#@###$#%#&#*#=#-#;#>#,#'#)#!#~#{#]#^#/#    ",
"    (#_#:#<#[#}#|#1#2#3#4#5#6#7#8#9#0#a#b#c#d#e#f#g#h#i#j#      ",
"      k#l#m#n#o#p#q#r#s#t#u#v#w#x#y#z#A#B#C#D#E#F#G#H#I#        ",
"        J#K#L#M#N#O#P#Q#R#S#T#U#V#W#X#Y#Z#`# $.$+$@$            ",
"                        #$$$%$&$*$=$-$                          ",
"                        ;$>$,$'$)$!$                            ",
"                        ~${$]$^$/$                              ",
"                        ($_$:$<$[$                              ",
"                        }$|$1$2$3$                              ",
"                        4$5$6$7$8$9$                            ",
"                        0$a$b$c$d$                              ",
"                          e$f$g$h$                              ",
"                                                                ",
"                                                                "};
