/* XPM */
static const char * TBB_BUILDLIBRARY_xpm[] = {
"16 15 158 2",
"  	c None",
". 	c #AEB3AC",
"+ 	c #97AF90",
"@ 	c #95AF8D",
"# 	c #A0B09B",
"$ 	c #A4B1A0",
"% 	c #9DB098",
"& 	c #A7B2A3",
"* 	c #B4B9B2",
"= 	c #82B275",
"- 	c #8AC47A",
"; 	c #A4E095",
"> 	c #A6E296",
", 	c #93D880",
"' 	c #90D57D",
") 	c #97DD84",
"! 	c #84CF70",
"~ 	c #8CAC82",
"{ 	c #8EAA86",
"] 	c #8DDA78",
"^ 	c #C0F0B3",
"/ 	c #B9EBAC",
"( 	c #ADE89D",
"_ 	c #A4E593",
": 	c #9CE388",
"< 	c #94E080",
"[ 	c #8FE179",
"} 	c #7AD062",
"| 	c #71BE5B",
"1 	c #98B091",
"2 	c #73B062",
"3 	c #9FE48C",
"4 	c #A6E595",
"5 	c #98E185",
"6 	c #90DE7A",
"7 	c #87DC70",
"8 	c #7FDA66",
"9 	c #76D75B",
"0 	c #70D554",
"a 	c #71D756",
"b 	c #5ED63D",
"c 	c #6DB25B",
"d 	c #8FA987",
"e 	c #82D46C",
"f 	c #A1E68E",
"g 	c #90DF7A",
"h 	c #89DE72",
"i 	c #81DB68",
"j 	c #78D95F",
"k 	c #71D855",
"l 	c #69D64B",
"m 	c #62D443",
"n 	c #5CD23C",
"o 	c #4ED22A",
"p 	c #63B34C",
"q 	c #9CB197",
"r 	c #76C860",
"s 	c #97E582",
"t 	c #8CDF75",
"u 	c #7EDC64",
"v 	c #70D854",
"w 	c #66D648",
"x 	c #61D542",
"y 	c #5DD43D",
"z 	c #59D338",
"A 	c #55D233",
"B 	c #51D22F",
"C 	c #52D52F",
"D 	c #59C53C",
"E 	c #9DAF97",
"F 	c #9EAF99",
"G 	c #6FCE56",
"H 	c #80E066",
"I 	c #65D845",
"J 	c #50D22B",
"K 	c #49D125",
"L 	c #49D225",
"M 	c #4BD226",
"N 	c #4CD328",
"O 	c #4DD429",
"P 	c #4ED42A",
"Q 	c #4FD52B",
"R 	c #53D62F",
"S 	c #5ADA37",
"T 	c #80B472",
"U 	c #98B291",
"V 	c #5BD23B",
"W 	c #5BDD37",
"X 	c #55DA32",
"Y 	c #58DB35",
"Z 	c #5ADC37",
"` 	c #5BDC38",
" .	c #5CDC3A",
"..	c #5EDE3C",
"+.	c #60DF3D",
"@.	c #61E03E",
"#.	c #62E040",
"$.	c #64E142",
"%.	c #69E647",
"&.	c #6ED951",
"*.	c #A0B39B",
"=.	c #87AD7C",
"-.	c #57CE36",
";.	c #61DA40",
">.	c #64DD43",
",.	c #67E046",
"'.	c #6AE448",
").	c #6BE54A",
"!.	c #6BE34A",
"~.	c #6BE14A",
"{.	c #6BE14B",
"].	c #6DE24D",
"^.	c #6FE54F",
"/.	c #70E550",
"(.	c #68D64A",
"_.	c #58C13C",
":.	c #91AE89",
"<.	c #A2AE9E",
"[.	c #4E9A3A",
"}.	c #469A30",
"|.	c #4B9C36",
"1.	c #4EA536",
"2.	c #58B73F",
"3.	c #6BD54E",
"4.	c #71DD53",
"5.	c #67C54D",
"6.	c #5AB143",
"7.	c #53A63C",
"8.	c #55AA3D",
"9.	c #54A93D",
"0.	c #50973C",
"a.	c #729968",
"b.	c #8FA28A",
"c.	c #7E9578",
"d.	c #889983",
"e.	c #779170",
"f.	c #6F9065",
"g.	c #63B04F",
"h.	c #75D85B",
"i.	c #62A250",
"j.	c #68945C",
"k.	c #82957C",
"l.	c #76916F",
"m.	c #73906B",
"n.	c #8FA08B",
"o.	c #82B375",
"p.	c #78DC5E",
"q.	c #76B365",
"r.	c #AAB1A8",
"s.	c #93C884",
"t.	c #85E869",
"u.	c #97AB90",
"v.	c #8FC481",
"w.	c #86EB6A",
"x.	c #94B68B",
"y.	c #93AF8A",
"z.	c #77AF68",
"A.	c #9AB095",
"        . + @ # $ % &           ",
"    * = - ; > , ' ) ! ~         ",
"    { ] ^ / ( _ : < [ } | 1     ",
"    2 3 4 5 6 7 8 9 0 a b c     ",
"  d e f g h i j k l m n o p     ",
"q r s t u v w x y z A B C D E   ",
"F G H I J K L M N O P Q R S T   ",
"U V W X Y Z `  ...+.@.#.$.%.&.*.",
"=.-.;.>.,.'.).!.~.{.].^./.(._.:.",
"<.[.}.|.1.2.3.4.5.6.7.8.9.0.a.  ",
"  b.c.d.e.f.g.h.i.j.k.l.m.n.    ",
"            o.p.q.r.            ",
"            s.t.u.              ",
"            v.w.x.              ",
"            y.z.A.              "};
