/* XPM */
static const char * library_xpm[] = {
"16 16 146 2",
"  	c None",
". 	c #C41919",
"+ 	c #C41616",
"@ 	c #C14053",
"# 	c #C0080B",
"$ 	c #BE0000",
"% 	c #C10707",
"& 	c #CA4039",
"* 	c #C0B21A",
"= 	c #BF4A00",
"- 	c #BF0300",
"; 	c #C00000",
"> 	c #C60000",
", 	c #C10000",
"' 	c #9A2542",
") 	c #6D71AF",
"! 	c #C2C220",
"~ 	c #BFBE00",
"{ 	c #BFC300",
"] 	c #BFCB00",
"^ 	c #C79A01",
"/ 	c #C63900",
"( 	c #A81D3B",
"_ 	c #77569D",
": 	c #567ACA",
"< 	c #5673C3",
"[ 	c #5870BE",
"} 	c #6A7EBF",
"| 	c #AFAF00",
"1 	c #BBBB00",
"2 	c #C0C000",
"3 	c #C4BF00",
"4 	c #CCBF00",
"5 	c #A1C801",
"6 	c #3FC500",
"7 	c #19AA3E",
"8 	c #4686A6",
"9 	c #616ECC",
"0 	c #5D70C3",
"a 	c #5972BC",
"b 	c #5B74C5",
"c 	c #6781D9",
"d 	c #A6A600",
"e 	c #A8A800",
"f 	c #B6B300",
"g 	c #B1BE01",
"h 	c #5AC103",
"i 	c #09BF01",
"j 	c #00C000",
"k 	c #00C500",
"l 	c #04BE06",
"m 	c #299D53",
"n 	c #557AB3",
"o 	c #677ED7",
"p 	c #6E89E5",
"q 	c #6F8AE7",
"r 	c #A9A800",
"s 	c #A7A800",
"t 	c #B2A700",
"u 	c #57AA00",
"v 	c #00B600",
"w 	c #00BF00",
"x 	c #00BD00",
"y 	c #00D900",
"z 	c #38B474",
"A 	c #7684F6",
"B 	c #6E8AE5",
"C 	c #6F88E6",
"D 	c #ADA801",
"E 	c #B0A800",
"F 	c #B3A800",
"G 	c #52A700",
"H 	c #00A600",
"I 	c #00AD00",
"J 	c #00B900",
"K 	c #00CA00",
"L 	c #00DE00",
"M 	c #00EE00",
"N 	c #36B972",
"O 	c #7583F5",
"P 	c #7285EF",
"Q 	c #7286ED",
"R 	c #36A802",
"S 	c #89A801",
"T 	c #BEA800",
"U 	c #57A800",
"V 	c #00A800",
"W 	c #00AC00",
"X 	c #00E200",
"Y 	c #00E800",
"Z 	c #00EC00",
"` 	c #38B578",
" .	c #7D7CFF",
"..	c #5E98C1",
"+.	c #27C74F",
"@.	c #05A801",
"#.	c #55A802",
"$.	c #49A801",
"%.	c #00A700",
"&.	c #00E100",
"*.	c #00E600",
"=.	c #00EA00",
"-.	c #33BD64",
";.	c #3BB579",
">.	c #06E30B",
",.	c #00EB00",
"'.	c #4AA801",
").	c #57A802",
"!.	c #06A701",
"~.	c #05E601",
"{.	c #6FE502",
"].	c #63E504",
"^.	c #00E700",
"/.	c #00E500",
"(.	c #BFA800",
"_.	c #89A701",
":.	c #30AC02",
"<.	c #3FE102",
"[.	c #B5E602",
"}.	c #FFE500",
"|.	c #78E600",
"1.	c #18AB18",
"2.	c #50A800",
"3.	c #B4A800",
"4.	c #AFA700",
"5.	c #AFAC01",
"6.	c #E4E101",
"7.	c #F1E600",
"8.	c #F5E500",
"9.	c #6EE500",
"0.	c #1FE61F",
"a.	c #64A914",
"b.	c #A7A700",
"c.	c #ADAC00",
"d.	c #E3E100",
"e.	c #E6E600",
"f.	c #F1E500",
"g.	c #86E51A",
"h.	c #ACAB3B",
"i.	c #A7A707",
"j.	c #ABAB00",
"k.	c #E1E100",
"l.	c #E7E707",
"m.	c #E8E648",
"n.	c #B3B313",
"o.	c #E2E217",
"              . +               ",
"          @ # $ $ % &           ",
"        * = - ; > , ' )         ",
"    ! ~ { ] ^ / ( _ : < [ }     ",
"  | 1 2 3 4 5 6 7 8 9 0 a b c   ",
"  d e f g h i j k l m n o p q   ",
"  r s t u v w j x j y z A B C   ",
"  D E F G H I J K L M N O P Q   ",
"  R S T U V H W X Y Z `  ...+.  ",
"  V @.#.$.V %.W &.*.=.-.;.>.,.  ",
"  V V V '.).!.W &.~.{.].=.^./.  ",
"  V %.V U (._.:.<.[.}.|./././.  ",
"    1.V 2.3.4.5.6.7.8.9./.0.    ",
"        a.E b.c.d.e.f.g.        ",
"          h.i.j.k.l.m.          ",
"              n.o.              "};
