/* XPM */
static const char * library_dis_xpm[] = {
"16 16 54 1",
" 	c None",
".	c #C7C7C7",
"+	c #C9C9C9",
"@	c #CBCBCB",
"#	c #C8C8C8",
"$	c #C6C6C6",
"%	c #C0C0C0",
"&	c #CACACA",
"*	c #909090",
"=	c #AEAEAE",
"-	c #D5D5D5",
";	c #D4D4D4",
">	c #929292",
",	c #A4A4A4",
"'	c #C4C4C4",
")	c #D0D0D0",
"!	c #DADADA",
"~	c #828282",
"{	c #838383",
"]	c #949494",
"^	c #DDDDDD",
"/	c #E2E2E2",
"(	c #D8D8D8",
"_	c #8A8A8A",
":	c #7F7F7F",
"<	c #8F8F8F",
"[	c #B3B3B3",
"}	c #DFDFDF",
"|	c #858585",
"1	c #848484",
"2	c #808080",
"3	c #E4E4E4",
"4	c #E1E1E1",
"5	c #D7D7D7",
"6	c #8C8C8C",
"7	c #7E7E7E",
"8	c #9A9A9A",
"9	c #DEDEDE",
"0	c #E3E3E3",
"a	c #888888",
"b	c #818181",
"c	c #9C9C9C",
"d	c #E0E0E0",
"e	c #E5E5E5",
"f	c #D1D1D1",
"g	c #A5A5A5",
"h	c #7C7C7C",
"i	c #9B9B9B",
"j	c #BCBCBC",
"k	c #959595",
"l	c #CFCFCF",
"m	c #C1C1C1",
"n	c #D3D3D3",
"o	c #939393",
"       ..       ",
"     ......     ",
"   .....+....   ",
"  @#.$$.%&+..$  ",
" *=.##-;>,'&.)! ",
" ~{]$^/(_:<[!}} ",
" |12.3456~784}9 ",
" |1{.04(ab2cd}9 ",
" |1{#e9fgahid}9 ",
" |1{+9@$@jkid}9 ",
" ||{ij++$+@l}99 ",
" |||bagm&n94999 ",
" ||||{:o54}9999 ",
"   |||~_54999   ",
"     |~6549     ",
"       65       "};
