/* XPM */
static const char * module_xpm[] = {
"16 16 8 1",
" 	c None",
".	c #FFFFFF",
"+	c #C0C0C0",
"@	c #00FF00",
"#	c #008080",
"$	c #808080",
"%	c #008000",
"&	c #808000",
"       .+       ",
"     .+++.+     ",
"   .+++++++.+   ",
"  +++++++++++.  ",
" ++++++@#++++++ ",
" $$++$@%@%+++.. ",
" $$+&@@%@@@$..+ ",
" $$$%%%@@%@@.++ ",
" $$$$%%%@@@$+.. ",
" $+$%%%%@@%@.++ ",
" $$$$%%%@@@+... ",
" $$$$$$%@++.+++ ",
" +$$$$$$+.+.+.. ",
"   +$$$$+.+..   ",
"     +$$.+.     ",
"       ++       "};
