/* XPM */
static const char * TBB_OPEN_xpm[] = {
"16 15 113 2",
"  	c None",
". 	c #DCDCDC",
"+ 	c #E4E4E4",
"@ 	c #E8E8E8",
"# 	c #EAE9E7",
"$ 	c #F1EFE9",
"% 	c #F0EBDA",
"& 	c #E0C886",
"* 	c #EBC766",
"= 	c #D5C08B",
"- 	c #E4E4BB",
"; 	c #FCFCB1",
"> 	c #F9F8AB",
", 	c #FBFAF6",
"' 	c #FFFFFF",
") 	c #FFFAEC",
"! 	c #FECC45",
"~ 	c #FAC336",
"{ 	c #E9CB6F",
"] 	c #DDD8AD",
"^ 	c #F6F6AE",
"/ 	c #DADABC",
"( 	c #F2F2B8",
"_ 	c #FFFFAE",
": 	c #FFFDA4",
"< 	c #FFFDEC",
"[ 	c #FFFBF0",
"} 	c #FED04E",
"| 	c #FEDD66",
"1 	c #FFED86",
"2 	c #FFFB9F",
"3 	c #FBFBB0",
"4 	c #E1E1B9",
"5 	c #FFFEA9",
"6 	c #FFF99E",
"7 	c #FFFCE7",
"8 	c #FFF9EA",
"9 	c #FFECB4",
"0 	c #FFE06A",
"a 	c #FFEC81",
"b 	c #FFF492",
"c 	c #FFFCA4",
"d 	c #ECECB6",
"e 	c #FEFCA5",
"f 	c #FFF79A",
"g 	c #FFFCE1",
"h 	c #FEFAEB",
"i 	c #FBE9B3",
"j 	c #F8D26E",
"k 	c #FBCC4D",
"l 	c #FFD557",
"m 	c #FFE06C",
"n 	c #FFEA81",
"o 	c #FFF697",
"p 	c #FFFFA9",
"q 	c #D9D9BC",
"r 	c #F4F0A5",
"s 	c #FFF595",
"t 	c #FEF2CE",
"u 	c #ECB219",
"v 	c #EFB619",
"w 	c #F6C130",
"x 	c #FDCC45",
"y 	c #FFD75B",
"z 	c #FFE371",
"A 	c #FFEE86",
"B 	c #FAFAB0",
"C 	c #E2DEAC",
"D 	c #FFF28F",
"E 	c #FFF9D6",
"F 	c #F9DE8A",
"G 	c #ECAF0C",
"H 	c #F2BA22",
"I 	c #F8C335",
"J 	c #FED04C",
"K 	c #FFDB62",
"L 	c #FFE676",
"M 	c #FFF390",
"N 	c #FFF99D",
"O 	c #ECE29D",
"P 	c #FFF08A",
"Q 	c #FFF5C5",
"R 	c #F3CA53",
"S 	c #ECB10F",
"T 	c #F4BD27",
"U 	c #FBC73B",
"V 	c #FFD250",
"W 	c #FFEA7E",
"X 	c #F6E485",
"Y 	c #DDCD94",
"Z 	c #F5E68E",
"` 	c #FEE99A",
" .	c #F0BB2F",
"..	c #EDB313",
"+.	c #F4BE2A",
"@.	c #FCCA41",
"#.	c #FFD456",
"$.	c #F5D770",
"%.	c #DAC992",
"&.	c #E4D89C",
"*.	c #FADA65",
"=.	c #ECB112",
"-.	c #EFB71B",
";.	c #F7C131",
">.	c #F2C85B",
",.	c #D8C592",
"'.	c #D2CBAC",
").	c #F8C941",
"!.	c #EBAF0D",
"~.	c #E9BE47",
"{.	c #D4C18F",
"].	c #E0C16A",
"^.	c #D1BC83",
"                                ",
"                                ",
"      . + + @ # $ % & * =       ",
"- ; > , ' ' ' ' ' ) ! ~ { ] ^ / ",
"( _ : < ' ' ' ' ' [ } | 1 2 3   ",
"4 5 6 7 ' ' ' ' 8 9 0 a b c d   ",
"  e f g ' h i j k l m n o p q   ",
"  r s g t u v w x y z A f B     ",
"  C D E F G H I J K L M N O     ",
"    P Q R S T U V 0 W X Y       ",
"    Z `  ...+.@.#.$.%.          ",
"    &.*.=.-.;.>.,.              ",
"    '.).!.~.{.                  ",
"      ].^.                      ",
"                                "};
