/* XPM */
static const char * TBB_OPEN_LARGE_xpm[] = {
"32 32 154 2",
"  	c None",
". 	c #CBCBCB",
"+ 	c #CDCDCD",
"@ 	c #D2D2D2",
"# 	c #D9D9D9",
"$ 	c #E5E5E5",
"% 	c #E6E6E6",
"& 	c #DFDFDF",
"* 	c #F9F9F9",
"= 	c #FFFFFF",
"- 	c #F4F4F4",
"; 	c #CDC3A9",
"> 	c #D8C58F",
", 	c #E2C370",
"' 	c #CDC1A2",
") 	c #C1C1C0",
"! 	c #D0D0BC",
"~ 	c #D0D0BB",
"{ 	c #C2C2BF",
"] 	c #F7F7F7",
"^ 	c #FEFBF1",
"/ 	c #FFD14E",
"( 	c #FDCD46",
"_ 	c #FDC942",
": 	c #F9C53A",
"< 	c #D9C284",
"[ 	c #D6D6BB",
"} 	c #CACABF",
"| 	c #C9C9BF",
"1 	c #F0F0BB",
"2 	c #FFFFB1",
"3 	c #FFFFAD",
"4 	c #EEECAC",
"5 	c #FFFBEF",
"6 	c #E1C166",
"7 	c #CAC9BA",
"8 	c #E2E1B1",
"9 	c #FAFAAE",
"0 	c #FCFCB2",
"a 	c #C2C2C0",
"b 	c #F4F4BA",
"c 	c #FFFDA5",
"d 	c #FAF9EA",
"e 	c #F9C536",
"f 	c #F7CF60",
"g 	c #F0E99F",
"h 	c #FFF599",
"i 	c #EAEABB",
"j 	c #EEEEBB",
"k 	c #FFFDA1",
"l 	c #FFFCE3",
"m 	c #FFD95E",
"n 	c #FFE981",
"o 	c #FFF189",
"p 	c #FFF595",
"q 	c #D5D5BE",
"r 	c #DFDFBD",
"s 	c #FFFCDC",
"t 	c #FFF3D2",
"u 	c #FFE571",
"v 	c #FFE97D",
"w 	c #FFF18D",
"x 	c #FDFDB2",
"y 	c #C3C3C0",
"z 	c #CACABE",
"A 	c #FFFBD8",
"B 	c #FFF5D9",
"C 	c #FEE49A",
"D 	c #FDD257",
"E 	c #FFD95A",
"F 	c #FFDD65",
"G 	c #EAEAB6",
"H 	c #F6F6B0",
"I 	c #FFFBD3",
"J 	c #FFFAE9",
"K 	c #FEE39F",
"L 	c #FACD53",
"M 	c #FFDD69",
"N 	c #FFE575",
"O 	c #E2E2B6",
"P 	c #FFF9CB",
"Q 	c #FFFDF1",
"R 	c #FFEEB4",
"S 	c #FACF5A",
"T 	c #F1B91E",
"U 	c #F1B922",
"V 	c #F5C12E",
"W 	c #FFD152",
"X 	c #FEFEB1",
"Y 	c #CECDBA",
"Z 	c #FFF8C5",
"` 	c #EDB516",
" .	c #E9AD0A",
"..	c #F5BD2A",
"+.	c #EBEBB6",
"@.	c #F9F7A4",
"#.	c #FFF7BF",
"$.	c #FFF2C7",
"%.	c #EDB112",
"&.	c #D7D7BB",
"*.	c #E5DFA9",
"=.	c #FFF6B6",
"-.	c #FEE397",
";.	c #FEFEAD",
">.	c #C3C3BF",
",.	c #D1D1B7",
"'.	c #FFF1AF",
").	c #F7CB50",
"!.	c #F5EC9C",
"~.	c #C1C1BF",
"{.	c #FAF198",
"].	c #FFEFA6",
"^.	c #FFFDF5",
"/.	c #F5D973",
"(.	c #CDC1A1",
"_.	c #E8DFA0",
":.	c #FFEFA1",
"<.	c #FFF7D6",
"[.	c #F4D875",
"}.	c #D5D0AF",
"|.	c #FFEA91",
"1.	c #FFE59D",
"2.	c #F3D471",
"3.	c #CCC1A3",
"4.	c #C2C2BE",
"5.	c #FDE883",
"6.	c #FFEA8B",
"7.	c #FAD161",
"8.	c #F2D46F",
"9.	c #CAC1A9",
"0.	c #EBDC95",
"a.	c #FFE676",
"b.	c #F1BA26",
"c.	c #F2CD66",
"d.	c #C9C1AE",
"e.	c #D7CFA8",
"f.	c #EEC760",
"g.	c #C8C1B0",
"h.	c #C5C3BB",
"i.	c #FEE473",
"j.	c #F5BD2B",
"k.	c #EBC45C",
"l.	c #C7C1AF",
"m.	c #EED581",
"n.	c #F1B91F",
"o.	c #EAC45B",
"p.	c #C6C1B1",
"q.	c #DACC9B",
"r.	c #EDB113",
"s.	c #E4BB4D",
"t.	c #C5BFB1",
"u.	c #C7C3B6",
"v.	c #DEC16C",
"w.	c #C3BFB3",
"                                                                ",
"                                                                ",
"                                                                ",
"                                                                ",
"                                                                ",
"                . + + + @ # # # # $ % &                         ",
"              * = = = = = = = = = = = -   ; > , '               ",
"      ) ! ~ { ] = = = = = = = = = = = ^ / ( _ : <       ) [ }   ",
"  | 1 2 3 3 4 - = = = = = = = = = = = 5 / _ : : 6   7 8 9 0 a   ",
"  b 2 2 3 c c d = = = = = = = = = = = 5 ( _ : e f g h c 3 i     ",
"  j 2 2 3 c k l = = = = = = = = = = = = _ ( m n o p k c 2 q     ",
"  r 2 3 3 k k s = = = = = = = = = = = t m u v n w h k 3 x y     ",
"  z 2 3 c k h A = = = = = = = = B C D E F u v o w h c 3 G       ",
"    H c c h h I = = = = = J K L e ( / m M N v o p k c 3 [       ",
"    O c k h h P = = Q R S T U V : ( W m M N n w p k 3 X y       ",
"    Y c k h p Z = Q `  .` T ..V : ( W F M N n w h k 3 +.        ",
"      @.h p w #.= $. .%.` U ..e _ / W F u N o p h k 3 &.        ",
"      *.h p w =.= -. .%.T U V e ( / m M u v o w h c ;.>.        ",
"      ,.h w o '.= ). .%.T U V : ( W m M u v w p k c !.          ",
"      ~.{.w o ].^.` %.` T ..e : ( E F M N o w h p /.(.          ",
"        _.o n :.<. .%.` T ..e _ / W F u v o o [.(.              ",
"        }.o v |.1. .%.` U V : _ / E M u N 2.3.                  ",
"        4.5.v 6.7. .%.` U V : ( W m F 8.9.                      ",
"          0.N a.b.%.` T ..V _ ( W c.d.                          ",
"          e.N u %.%.` T ..e _ f.g.                              ",
"          h.i.m  .%.` U j.k.l.                                  ",
"            m.(  .%.n.o.p.                                      ",
"            q.V r.s.t.                                          ",
"            u.v.w.                                              ",
"                                                                ",
"                                                                ",
"                                                                "};
