/* XPM */
static const char * TBB_SAVE_LARGE_xpm[] = {
"32 32 274 2",
"  	c None",
". 	c #D4CFB5",
"+ 	c #E0D9B6",
"@ 	c #E6DCAC",
"# 	c #E4D89F",
"$ 	c #CDC6A4",
"% 	c #CDC6A6",
"& 	c #D0C8A1",
"* 	c #D9CD94",
"= 	c #D9CE98",
"- 	c #DED195",
"; 	c #EAD98B",
"> 	c #EBDB91",
", 	c #F3E28E",
"' 	c #F2E294",
") 	c #F4E396",
"! 	c #F8E89C",
"~ 	c #F9E898",
"{ 	c #FAE998",
"] 	c #FDEA8B",
"^ 	c #FFE97F",
"/ 	c #FFE97D",
"( 	c #FFE461",
"_ 	c #FFE35D",
": 	c #FFE14F",
"< 	c #D5C786",
"[ 	c #E7CC4B",
"} 	c #F0CF31",
"| 	c #F2D12E",
"1 	c #EFD246",
"2 	c #F5D439",
"3 	c #F7D73E",
"4 	c #F0D861",
"5 	c #F4DB62",
"6 	c #F3DC70",
"7 	c #F6E17A",
"8 	c #F7E27C",
"9 	c #FDE881",
"0 	c #FFE879",
"a 	c #FFE775",
"b 	c #FFE66F",
"c 	c #FFE569",
"d 	c #FFE463",
"e 	c #FFE35F",
"f 	c #FFE259",
"g 	c #FFE153",
"h 	c #FFE049",
"i 	c #FFDF43",
"j 	c #FFDE3F",
"k 	c #F7D94A",
"l 	c #E9D36D",
"m 	c #F8E383",
"n 	c #FDF0B3",
"o 	c #FFF2B1",
"p 	c #FFF1AB",
"q 	c #FFF0A7",
"r 	c #FFEFA3",
"s 	c #FFEE9F",
"t 	c #FFED99",
"u 	c #FFED95",
"v 	c #FFEC8F",
"w 	c #FFEB8B",
"x 	c #FFEA85",
"y 	c #FFE87B",
"z 	c #FFE465",
"A 	c #FFE255",
"B 	c #F5DB5F",
"C 	c #FDDD43",
"D 	c #FFDD3B",
"E 	c #EED45B",
"F 	c #D8CC8E",
"G 	c #ADA683",
"H 	c #BAB187",
"I 	c #FFEC91",
"J 	c #FFE981",
"K 	c #FFE671",
"L 	c #FFE56B",
"M 	c #FFE35B",
"N 	c #FFE04B",
"O 	c #E9D77E",
"P 	c #E7D682",
"Q 	c #FADB49",
"R 	c #FFDC35",
"S 	c #E5D06D",
"T 	c #FEE052",
"U 	c #FFF1AD",
"V 	c #BAB28B",
"W 	c #AEA680",
"X 	c #FCEB9D",
"Y 	c #FFEE9B",
"Z 	c #FFEA87",
"` 	c #FFE877",
" .	c #FFE567",
"..	c #FFE151",
"+.	c #FFDF45",
"@.	c #F6DB59",
"#.	c #FCDC44",
"$.	c #FFDC37",
"%.	c #FFDB31",
"&.	c #DACB82",
"*.	c #FCDC46",
"=.	c #A79D6C",
"-.	c #7F7750",
";.	c #E5D68B",
">.	c #FFED97",
",.	c #FFEB8D",
"'.	c #FFEA83",
").	c #FFE66D",
"!.	c #FFE257",
"~.	c #FFE04D",
"{.	c #FFDF47",
"].	c #FFDE41",
"^.	c #FFDC33",
"/.	c #FFDB2D",
"(.	c #D1C797",
"_.	c #F5D956",
":.	c #B7AC74",
"<.	c #948A5B",
"[.	c #D5C67E",
"}.	c #FFEC93",
"|.	c #FFEB89",
"1.	c #FFE773",
"2.	c #FFDE3D",
"3.	c #FFDA29",
"4.	c #C8C3AD",
"5.	c #E5D176",
"6.	c #FFEE9D",
"7.	c #FFDD39",
"8.	c #FFDB2F",
"9.	c #FFDA2B",
"0.	c #FDD82A",
"a.	c #D3C893",
"b.	c #FDE46C",
"c.	c #F9E275",
"d.	c #E5D898",
"e.	c #D8D1B3",
"f.	c #D6D0B5",
"g.	c #E2D598",
"h.	c #F5DD67",
"i.	c #FFD925",
"j.	c #F6D538",
"k.	c #FBDF58",
"l.	c #E7D995",
"m.	c #CFCDC6",
"n.	c #CCCCCC",
"o.	c #E1D496",
"p.	c #FFDA27",
"q.	c #FFD923",
"r.	c #EBD14F",
"s.	c #FADC50",
"t.	c #D3CFBC",
"u.	c #C6C6C6",
"v.	c #B9B9B9",
"w.	c #CECDC6",
"x.	c #FFD81F",
"y.	c #E2CD66",
"z.	c #EFD763",
"A.	c #D4D0BA",
"B.	c #929292",
"C.	c #CFCDC4",
"D.	c #FFD81B",
"E.	c #D9C97C",
"F.	c #DFCE7C",
"G.	c #FEE776",
"H.	c #E9D989",
"I.	c #D1CEC0",
"J.	c #CDCCCA",
"K.	c #E2D48F",
"L.	c #FFD717",
"M.	c #CFC597",
"N.	c #D0C79B",
"O.	c #FAE16B",
"P.	c #FCE05A",
"Q.	c #F0DA73",
"R.	c #E3D58F",
"S.	c #E1D493",
"T.	c #EBD775",
"U.	c #F9DB49",
"V.	c #FFD921",
"W.	c #FFD81D",
"X.	c #FFD719",
"Y.	c #FFD613",
"Z.	c #F9DE5D",
"`.	c #FFD715",
" +	c #FCD51B",
".+	c #F7DC5A",
"++	c #FFD611",
"@+	c #F1D034",
"#+	c #EAD56E",
"$+	c #F5D53D",
"%+	c #EDCF43",
"&+	c #EED041",
"*+	c #DFC857",
"=+	c #E5CB4D",
"-+	c #FFD60F",
";+	c #E8CD4D",
">+	c #DBCD87",
",+	c #F9E170",
"'+	c #C2B470",
")+	c #ACA581",
"!+	c #ACA586",
"~+	c #ABA68B",
"{+	c #9F9F9F",
"]+	c #A3A3A3",
"^+	c #A6A6A6",
"/+	c #AAA9AA",
"(+	c #ADADAD",
"_+	c #B0B1B0",
":+	c #BDB9A0",
"<+	c #FFD50B",
"[+	c #DFCA66",
"}+	c #CEC6A2",
"|+	c #F5DD6F",
"1+	c #A8A287",
"2+	c #999999",
"3+	c #9D9C9D",
"4+	c #A0A1A1",
"5+	c #A4A4A4",
"6+	c #A8A7A8",
"7+	c #ABABAB",
"8+	c #D1C171",
"9+	c #F0D03C",
"0+	c #DBC766",
"a+	c #BDBAAC",
"b+	c #FFD509",
"c+	c #D5C784",
"d+	c #F6DD66",
"e+	c #B8AE80",
"f+	c #9E9E9E",
"g+	c #A1A2A2",
"h+	c #A5A5A5",
"i+	c #A9A9A9",
"j+	c #ADACAD",
"k+	c #D7C56D",
"l+	c #E5CC52",
"m+	c #FFD50D",
"n+	c #FFD407",
"o+	c #CBC49E",
"p+	c #F3DB67",
"q+	c #C4B87A",
"r+	c #A7A7A7",
"s+	c #AAAAAA",
"t+	c #AEADAE",
"u+	c #D5C576",
"v+	c #EDD043",
"w+	c #F9D31D",
"x+	c #FFD403",
"y+	c #E7D478",
"z+	c #FBE05F",
"A+	c #D1C070",
"B+	c #A9A8A9",
"C+	c #ACACAB",
"D+	c #D4C680",
"E+	c #EACF4B",
"F+	c #E4CB58",
"G+	c #D7C77C",
"H+	c #CAC3A0",
"I+	c #D8CC92",
"J+	c #F4DD6D",
"K+	c #DDC864",
"L+	c #C6C2AD",
"M+	c #CBC5A4",
"N+	c #CDC6A7",
"O+	c #F1DB75",
"P+	c #E6CD58",
"Q+	c #BAB6A5",
"R+	c #C3BD9D",
"S+	c #C7C09F",
"T+	c #C5C0AD",
"U+	c #E3D389",
"V+	c #F4D958",
"W+	c #E7D26E",
"X+	c #DACC87",
"Y+	c #CDC5A3",
"                                                                ",
"                                                                ",
"                                                                ",
"                                                                ",
"                                                    . + @ #     ",
"                    $ % & * = - ; > , ' ) ! ~ { ] ^ / ( _ :     ",
"    < [ } | 1 2 3 4 5 6 7 8 9 ^ / 0 a b c d e f g : h i j k     ",
"    l m n o p q r s t u v w x ^ y a b c z e f A : h B C D E     ",
"    F b o G H r s t u I w x J y a K L z e M A : N O P Q R S     ",
"      T U V W X Y u I w Z J / ` K L  .( M A ..N +.@.#.$.%.&.    ",
"      *.q =.-.;.>.I ,.Z './ ` K ). .( M !...~.{.].D $.^./.(.    ",
"      _.>.:.<.[.}.,.|.'./ 0 1.). .d _ !.g ~.{.i 2.$.^./.3.4.    ",
"      5.J 6.t }.v |.x ^ 0 1.b c d _ f g ~.h i j 7.^.8.9.0.      ",
"      a.b.t }.v w x ^ 0 a b c.d.e.f.g.h.h i j 7.R 8.9.i.j.      ",
"        k.u v w x ^ y a b L l.m.n.n.n.o.+.j D R 8.9.p.q.r.      ",
"        s.v w x J y a K L z t.n.u.v.n.w.j D R %.9.p.q.x.y.      ",
"        z.'.Z J / ` K L  .( A.n.v.B.n.C.D $.%./.3.q.x.D.E.      ",
"        F.G.'./ ` 1.). .( _ H.I.n.n.J.K.$.^./.3.i.x.D.L.M.      ",
"        N.O./ 0 1.).c d _ !.P.Q.R.S.T.U.^.8.3.i.V.W.X.Y.        ",
"          Z.0 1.b c d _ f g ~.h i 2.7.^.8.3.i.V.W.X.`. +        ",
"          .+a b c z e f g : h i j 7.R 8.9.p.V.W.X.`.++@+        ",
"          #+).L z e M A : h +.j D R $+%+&+*+=+D.`.++-+;+        ",
"          >+,+z ( M A : '+)+!+~+{+]+^+/+(+_+:+L.Y.-+<+[+        ",
"          }+|+( M !...N 1+2+3+4+5+6+7+8+9+0+a+Y.-+<+b+c+        ",
"            d+_ !.g ~.{.e+f+g+h+i+j+  k+D.l+  ++m+b+n+o+        ",
"            p+f g ~.h i q+5+r+s+t+    u+L.v+  w+b+n+x+          ",
"            y+z+~.h i j A+B+C+        D+`.&+  E+F+G+H+          ",
"            I+J+h i j 7.K+(+          L+M+                      ",
"            N+O++.j D R P+Q+R+S+T+                              ",
"              U+V+W+X+Y+                                        ",
"                                                                ",
"                                                                "};
