/* XPM */
static const char * TBB_SEARCH_xpm[] = {
"16 15 123 2",
"  	c None",
". 	c #AFC7DB",
"+ 	c #B2CCE1",
"@ 	c #ACCAE0",
"# 	c #BED7E9",
"$ 	c #A6BFD2",
"% 	c #AAB7C3",
"& 	c #B3E0FD",
"* 	c #CAEBFE",
"= 	c #ACB8C4",
"- 	c #A6B0BB",
"; 	c #AEDEFA",
"> 	c #E3FAFF",
", 	c #A6C6DF",
"' 	c #9AB4C9",
") 	c #ADDDFF",
"! 	c #C5E8FF",
"~ 	c #A5BACD",
"{ 	c #9BB4CA",
"] 	c #AADCFD",
"^ 	c #D1EFFF",
"/ 	c #9EC1DC",
"( 	c #9DC8E6",
"_ 	c #B4E2FF",
": 	c #B2E0FF",
"< 	c #BEE5FD",
"[ 	c #BDE4FE",
"} 	c #BBE4FF",
"| 	c #C3E9FF",
"1 	c #A7CDE8",
"2 	c #8CC8F2",
"3 	c #9BD7FF",
"4 	c #AADDFF",
"5 	c #BFE6FF",
"6 	c #C9EAFF",
"7 	c #A2DAFF",
"8 	c #B6E4FF",
"9 	c #B3DAF4",
"0 	c #A9B6C2",
"a 	c #74C3F8",
"b 	c #7CCBFF",
"c 	c #9AD7FF",
"d 	c #9BD8FF",
"e 	c #A1DAFF",
"f 	c #8BD1FF",
"g 	c #A4DCFF",
"h 	c #B8DFF9",
"i 	c #ABB7C3",
"j 	c #A6BBCC",
"k 	c #42B5FF",
"l 	c #38B2FF",
"m 	c #46B7FF",
"n 	c #4ABBFF",
"o 	c #52BDFF",
"p 	c #5EBFFF",
"q 	c #75C9FF",
"r 	c #AEDEFE",
"s 	c #A8BACA",
"t 	c #A4BDD0",
"u 	c #39B1FE",
"v 	c #24AAFF",
"w 	c #2AA6F4",
"x 	c #51A6DE",
"y 	c #54A9E1",
"z 	c #54B7F8",
"A 	c #64C2FF",
"B 	c #A5DBFE",
"C 	c #A9BDCD",
"D 	c #A1BBD1",
"E 	c #40B3FD",
"F 	c #3DB3FF",
"G 	c #3E9DDB",
"H 	c #567B96",
"I 	c #577F9C",
"J 	c #4DA3DC",
"K 	c #66C2FF",
"L 	c #A3DBFF",
"M 	c #AABECF",
"N 	c #A3BDD1",
"O 	c #45B3FD",
"P 	c #62C2FF",
"Q 	c #8AC4EB",
"R 	c #9DA7B4",
"S 	c #97A3B1",
"T 	c #3A9CDC",
"U 	c #60C0FF",
"V 	c #A6DBFF",
"W 	c #ABBFD1",
"X 	c #9CBBD3",
"Y 	c #4DB9FF",
"Z 	c #6BC7FF",
"` 	c #97D4FE",
" .	c #A3B7C9",
"..	c #9AACBE",
"+.	c #56B6F6",
"@.	c #6CC7FF",
"#.	c #A7DBFF",
"$.	c #ABC0D2",
"%.	c #A0B9CD",
"&.	c #6AB7E9",
"*.	c #83C6F0",
"=.	c #A7D2F1",
"-.	c #A3B4C4",
";.	c #9BABBB",
">.	c #79BDEC",
",.	c #88CAF7",
"'.	c #B6DEFB",
").	c #919FAB",
"!.	c #38596F",
"~.	c #4D6678",
"{.	c #8093A5",
"].	c #9FA8B4",
"^.	c #98A2AD",
"/.	c #59768B",
"(.	c #5B7387",
"_.	c #8B9FB0",
":.	c #A8B2BE",
"<.	c #8F9399",
"[.	c #909399",
"}.	c #9FA2A8",
"|.	c #94999F",
"1.	c #8A8E95",
"2.	c #969AA2",
"                                ",
"          . +     @ # $         ",
"        % & * = - ; > ,         ",
"        ' ) ! ~ { ] ^ /         ",
"        ( _ : < [ } | 1         ",
"        2 3 4 5 6 7 8 9         ",
"      0 a b c d e f g h i       ",
"      j k l m n o p q r s       ",
"      t u v w x y z A B C       ",
"      D E F G H I J K L M       ",
"      N O P Q R S T U V W       ",
"      X Y Z `  ...+.@.#.$.      ",
"      %.&.*.=.-.;.>.,.'.        ",
"      ).!.~.{.].^./.(._.:.      ",
"        <.[.}.    |.1.2.        "};
